<?xml version="1.0" encoding="utf-8"?>
<!-- Generator: Adobe Illustrator 16.0.0, SVG Export Plug-In . SVG Version: 6.00 Build 0)  -->
<!DOCTYPE svg PUBLIC "-//W3C//DTD SVG 1.1//EN" "http://www.w3.org/Graphics/SVG/1.1/DTD/svg11.dtd">
<svg version="1.1" id="图层_1" xmlns="http://www.w3.org/2000/svg" xmlns:xlink="http://www.w3.org/1999/xlink" x="0px" y="0px"
	 width="479.332px" height="489.332px" viewBox="0 0 479.332 489.332" enable-background="new 0 0 479.332 489.332"
	 xml:space="preserve">
<path fill="#FFFFFF" fill-opacity="0.5" stroke="#000000" d="M164.535,54.802h82.482c1.979,0,3.586,1.604,3.586,3.585v23.908
	c0,1.979-1.605,3.586-3.586,3.586h-82.482c-1.98,0-3.586-1.606-3.586-3.586V58.387C160.949,56.406,162.555,54.802,164.535,54.802z"
	/>
<text transform="matrix(1 0 0 1 190.8943 64.3655)" font-family="'ArialMT'" font-size="8.3676">PIK3CA</text>
<rect x="163.939" y="67.95" fill="#FFFFFF" stroke="#000000" width="83.677" height="14.942"/>
<text transform="matrix(1 0 0 1 196.2131 78.2112)" font-family="'ArialMT'" font-size="8.3676">0.0%</text>
<path fill="#FFFFFF" fill-opacity="0.5" stroke="#000000" d="M166.926,319.575h82.48c1.981,0,3.587,1.607,3.587,3.588v23.906
	c0,1.98-1.604,3.586-3.587,3.586h-82.48c-1.979,0-3.586-1.604-3.586-3.586v-23.906C163.34,321.184,164.946,319.575,166.926,319.575z
	"/>
<text transform="matrix(1 0 0 1 196.5427 338.1409)" font-family="'ArialMT'" font-size="8.3676">RHEB</text>
<rect x="282.58" y="9.676" fill="#FFFFFF" fill-opacity="0.5" stroke="#CCCCCC" stroke-width="2" width="96.226" height="109.975"/>
<text transform="matrix(1 0 0 1 318.6018 129.2141)" font-family="'ArialMT'" font-size="8.3676">PIK3R</text>
<path fill="#FFFFFF" fill-opacity="0.5" stroke="#000000" d="M289.453,49.423h82.48c1.979,0,3.584,1.604,3.584,3.586v23.907
	c0,1.979-1.604,3.587-3.584,3.587h-82.48c-1.98,0-3.586-1.606-3.586-3.587V53.009C285.867,51.028,287.472,49.423,289.453,49.423z"/>
<text transform="matrix(1 0 0 1 316.2737 58.9866)" font-family="'ArialMT'" font-size="8.3676">PIK3R2</text>
<rect x="288.855" y="62.572" fill="#FFFFFF" stroke="#000000" width="83.676" height="14.941"/>
<text transform="matrix(1 0 0 1 321.1311 72.8323)" font-family="'ArialMT'" font-size="8.3676">0.0%</text>
<path fill="#FFFFFF" fill-opacity="0.5" stroke="#000000" d="M289.453,85.283h82.48c1.979,0,3.584,1.605,3.584,3.586v23.907
	c0,1.98-1.604,3.587-3.584,3.587h-82.48c-1.98,0-3.586-1.605-3.586-3.587V88.869C285.867,86.889,287.472,85.283,289.453,85.283z"/>
<text transform="matrix(1 0 0 1 316.2737 103.8469)" font-family="'ArialMT'" font-size="8.3676">PIK3R3</text>
<path fill="#FFFFFF" fill-opacity="0.5" stroke="#000000" d="M289.453,12.964h82.48c1.979,0,3.584,1.604,3.584,3.586v23.907
	c0,1.98-1.604,3.586-3.584,3.586h-82.48c-1.98,0-3.586-1.604-3.586-3.586V16.55C285.867,14.569,287.472,12.964,289.453,12.964z"/>
<text transform="matrix(1 0 0 1 316.2737 22.5266)" font-family="'ArialMT'" font-size="8.3676">PIK3R1</text>
<rect x="288.855" y="26.113" fill="#FFFFFF" stroke="#000000" width="83.676" height="14.942"/>
<text transform="matrix(1 0 0 1 321.1311 36.3723)" font-family="'ArialMT'" font-size="8.3676">0.0%</text>
<rect x="63.228" y="141.765" fill="#FFFFFF" fill-opacity="0.5" stroke="#CCCCCC" stroke-width="2" width="284.498" height="37.654"/>
<text transform="matrix(1 0 0 1 197.3406 188.9836)" font-family="'ArialMT'" font-size="8.3676">AKT</text>
<path fill="#FFFFFF" fill-opacity="0.5" stroke="#000000" d="M258.372,145.052h82.479c1.982,0,3.588,1.604,3.588,3.586v23.908
	c0,1.979-1.604,3.586-3.588,3.586h-82.479c-1.979,0-3.586-1.606-3.586-3.586v-23.908
	C254.786,146.657,256.392,145.052,258.372,145.052z"/>
<text transform="matrix(1 0 0 1 289.1487 154.6165)" font-family="'ArialMT'" font-size="8.3676">AKT3</text>
<rect x="257.775" y="158.201" fill="#FFFFFF" stroke="#000000" width="83.678" height="14.942"/>
<text transform="matrix(1 0 0 1 290.0491 168.4622)" font-family="'ArialMT'" font-size="8.3676">0.0%</text>
<path fill="#FFFFFF" fill-opacity="0.5" stroke="#000000" d="M163.939,145.052h82.481c1.98,0,3.584,1.604,3.584,3.586v23.908
	c0,1.979-1.604,3.586-3.584,3.586h-82.481c-1.98,0-3.586-1.606-3.586-3.586v-23.908
	C160.353,146.657,161.957,145.052,163.939,145.052z"/>
<text transform="matrix(1 0 0 1 194.7146 154.6165)" font-family="'ArialMT'" font-size="8.3676">AKT2</text>
<rect x="163.34" y="158.201" fill="#FFFFFF" stroke="#000000" width="83.678" height="14.942"/>
<text transform="matrix(1 0 0 1 195.615 168.4622)" font-family="'ArialMT'" font-size="8.3676">0.0%</text>
<path fill="#FFFFFF" fill-opacity="0.5" stroke="#000000" d="M70.102,145.052h82.479c1.98,0,3.587,1.604,3.587,3.586v23.908
	c0,1.979-1.605,3.586-3.587,3.586H70.102c-1.98,0-3.586-1.606-3.586-3.586v-23.908C66.515,146.657,68.12,145.052,70.102,145.052z"/>
<text transform="matrix(1 0 0 1 100.8777 154.6165)" font-family="'ArialMT'" font-size="8.3676">AKT1</text>
<rect x="69.503" y="158.201" fill="#FFFFFF" stroke="#000000" width="83.676" height="14.942"/>
<text transform="matrix(1 0 0 1 101.7791 168.4622)" font-family="'ArialMT'" font-size="8.3676">0.0%</text>
<rect x="53.664" y="382.633" fill="#FFFFFF" fill-opacity="0.5" stroke="#CCCCCC" stroke-width="2" width="96.229" height="37.653"/>
<text transform="matrix(1 0 0 1 84.1907 429.8508)" font-family="'ArialMT'" font-size="8.3676">mTORC2</text>
<path fill="#FFFFFF" fill-opacity="0.5" stroke="#000000" d="M60.538,385.922h82.48c1.979,0,3.586,1.604,3.586,3.584v23.909
	c0,1.979-1.605,3.584-3.586,3.584h-82.48c-1.98,0-3.587-1.604-3.587-3.584v-23.909C56.951,387.528,58.558,385.922,60.538,385.922z"
	/>
<text transform="matrix(1 0 0 1 85.8176 395.4836)" font-family="'ArialMT'" font-size="8.3676">RICTOR</text>
<rect x="59.942" y="399.069" fill="#FFFFFF" stroke="#000000" width="83.676" height="14.943"/>
<text transform="matrix(1 0 0 1 92.2156 409.3313)" font-family="'ArialMT'" font-size="8.3676">0.0%</text>
<rect x="158.26" y="220.66" fill="#FFFFFF" fill-opacity="0.5" stroke="#CCCCCC" stroke-width="2" width="96.228" height="69.93"/>
<text transform="matrix(1 0 0 1 198.0066 300.1526)" font-family="'ArialMT'" font-size="8.3676">TSC</text>
<path fill="#FFFFFF" fill-opacity="0.5" stroke="#000000" d="M165.133,223.947h82.482c1.979,0,3.586,1.606,3.586,3.587v23.908
	c0,1.98-1.607,3.586-3.586,3.586h-82.482c-1.979,0-3.586-1.604-3.586-3.586v-23.908
	C161.547,225.553,163.153,223.947,165.133,223.947z"/>
<text transform="matrix(1 0 0 1 195.6794 233.511)" font-family="'ArialMT'" font-size="8.3676">TSC1</text>
<rect x="164.535" y="237.096" fill="#FFF8F8" stroke="#000000" width="83.677" height="14.942"/>
<text transform="matrix(1 0 0 1 194.4197 247.3567)" font-family="'ArialMT'" font-size="8.3676">&lt;0.5%</text>
<path fill="#FFFFFF" fill-opacity="0.5" stroke="#000000" d="M165.133,256.223h82.482c1.979,0,3.586,1.604,3.586,3.586v23.908
	c0,1.979-1.607,3.586-3.586,3.586h-82.482c-1.979,0-3.586-1.605-3.586-3.586v-23.908
	C161.547,257.827,163.153,256.223,165.133,256.223z"/>
<text transform="matrix(1 0 0 1 195.6794 265.7844)" font-family="'ArialMT'" font-size="8.3676">TSC2</text>
<rect x="164.535" y="269.37" fill="#FFF8F8" stroke="#000000" width="83.677" height="14.943"/>
<text transform="matrix(1 0 0 1 194.4197 279.6321)" font-family="'ArialMT'" font-size="8.3676">&lt;0.5%</text>
<rect x="158.859" y="382.633" fill="#FFFFFF" fill-opacity="0.5" stroke="#CCCCCC" stroke-width="2" width="193.053" height="37.653"/>
<text transform="matrix(1 0 0 1 237.7947 429.8508)" font-family="'ArialMT'" font-size="8.3676">mTORC1</text>
<path fill="#FFFFFF" fill-opacity="0.5" stroke="#000000" d="M262.556,385.922h82.481c1.979,0,3.586,1.604,3.586,3.584v23.909
	c0,1.979-1.605,3.584-3.586,3.584h-82.481c-1.979,0-3.586-1.604-3.586-3.584v-23.909
	C258.97,387.528,260.576,385.922,262.556,385.922z"/>
<text transform="matrix(1 0 0 1 289.2288 395.4836)" font-family="'ArialMT'" font-size="8.3676">RPTOR</text>
<rect x="261.959" y="399.069" fill="#FFFFFF" stroke="#000000" width="83.677" height="14.943"/>
<text transform="matrix(1 0 0 1 294.2346 409.3313)" font-family="'ArialMT'" font-size="8.3676">0.0%</text>
<path fill="#FFFFFF" fill-opacity="0.5" stroke="#000000" d="M165.733,385.922h82.48c1.979,0,3.585,1.604,3.585,3.584v23.909
	c0,1.979-1.605,3.584-3.585,3.584h-82.48c-1.981,0-3.587-1.604-3.587-3.584v-23.909C162.146,387.528,163.75,385.922,165.733,385.922
	z"/>
<text transform="matrix(1 0 0 1 194.7312 395.4836)" font-family="'ArialMT'" font-size="8.3676">MTOR</text>
<rect x="165.133" y="399.069" fill="#FFFFFF" stroke="#000000" width="83.678" height="14.943"/>
<text transform="matrix(1 0 0 1 197.4089 409.3313)" font-family="'ArialMT'" font-size="8.3676">0.0%</text>
<path fill="#FFFFFF" fill-opacity="0.5" stroke="#000000" d="M389.266,144.454h82.48c1.981,0,3.586,1.605,3.586,3.586v23.908
	c0,1.979-1.604,3.586-3.586,3.586h-82.48c-1.979,0-3.586-1.605-3.586-3.586V148.04C385.68,146.06,387.286,144.454,389.266,144.454z"
	/>
<text transform="matrix(1 0 0 1 411.6702 154.0168)" font-family="'ArialMT'" font-size="8.3676">PPP2R1A</text>
<rect x="388.669" y="157.604" fill="#FFFFFF" stroke="#000000" width="83.676" height="14.942"/>
<text transform="matrix(1 0 0 1 420.9436 167.8655)" font-family="'ArialMT'" font-size="8.3676">0.0%</text>
<path fill="#FFFFFF" fill-opacity="0.5" stroke="#000000" d="M163.939,3.997h82.481c1.98,0,3.584,1.606,3.584,3.588v23.906
	c0,1.98-1.604,3.587-3.584,3.587h-82.481c-1.98,0-3.586-1.605-3.586-3.587V7.585C160.353,5.604,161.957,3.997,163.939,3.997z"/>
<text transform="matrix(1 0 0 1 194.0203 13.5618)" font-family="'ArialMT'" font-size="8.3676">PTEN</text>
<rect x="163.34" y="17.147" fill="#FFF8F8" stroke="#000000" width="83.678" height="14.942"/>
<text transform="matrix(1 0 0 1 193.2244 27.4075)" font-family="'ArialMT'" font-size="8.3676">&lt;0.5%</text>
<rect x="182.466" y="471.989" fill="#FFFFFF" fill-opacity="0" width="53.792" height="14.344"/>
<text transform="matrix(1 0 0 1 188.4353 482.1487)" font-family="'ArialMT'" font-size="8.3676">Cell growth</text>
<path fill="#FFFFFF" fill-opacity="0.5" stroke="#000000" d="M31.251,55.996h82.48c1.98,0,3.587,1.605,3.587,3.587V83.49
	c0,1.981-1.605,3.587-3.587,3.587h-82.48c-1.98,0-3.586-1.604-3.586-3.587V59.583C27.665,57.602,29.271,55.996,31.251,55.996z"/>
<text transform="matrix(1 0 0 1 57.6101 65.5598)" font-family="'ArialMT'" font-size="8.3676">INPP4B</text>
<rect x="30.654" y="69.146" fill="#FFFFFF" stroke="#000000" width="83.676" height="14.941"/>
<text transform="matrix(1 0 0 1 62.9299 79.4075)" font-family="'ArialMT'" font-size="8.3676">0.0%</text>
<path fill="#FFFFFF" fill-opacity="0.5" stroke="#000000" d="M9.735,238.291h82.479c1.98,0,3.587,1.605,3.587,3.588v23.905
	c0,1.98-1.605,3.586-3.587,3.586H9.735c-1.981,0-3.586-1.604-3.586-3.586v-23.905C6.15,239.897,7.753,238.291,9.735,238.291z"/>
<text transform="matrix(1 0 0 1 38.4949 247.8547)" font-family="'ArialMT'" font-size="8.3676">STK11</text>
<rect x="9.136" y="251.442" fill="#FFFFFF" stroke="#000000" width="83.678" height="14.941"/>
<text transform="matrix(1 0 0 1 41.4119 261.7004)" font-family="'ArialMT'" font-size="8.3676">0.0%</text>
<line fill="none" stroke="#000000" stroke-width="2" x1="203.643" y1="219.487" x2="208.423" y2="219.442"/>
<line fill="none" stroke="#000000" x1="205.655" y1="179.42" x2="206.032" y2="219.465"/>
<line fill="none" stroke="#000000" stroke-width="2" x1="205.401" y1="318.436" x2="210.179" y2="318.327"/>
<line fill="none" stroke="#000000" x1="207.162" y1="290.59" x2="207.789" y2="318.383"/>
<polygon points="213.99,466.655 218.105,469.091 213.61,471.989 "/>
<line fill="none" stroke="#000000" x1="244.233" y1="420.286" x2="216.047" y2="467.872"/>
<polygon points="153.451,257.405 153.506,252.622 158.26,255.071 "/>
<line fill="none" stroke="#000000" x1="95.802" y1="254.35" x2="153.48" y2="255.014"/>
<line fill="none" stroke="#000000" stroke-width="2" x1="203.19" y1="53.635" x2="207.97" y2="53.578"/>
<line fill="none" stroke="#000000" x1="205.361" y1="35.078" x2="205.578" y2="53.606"/>
<polygon points="203.165,136.976 207.947,136.991 205.539,141.765 "/>
<line fill="none" stroke="#000000" x1="205.726" y1="85.882" x2="205.555" y2="136.984"/>
<line fill="none" stroke="#000000" stroke-width="2" x1="251.689" y1="65.861" x2="251.906" y2="70.637"/>
<line fill="none" stroke="#000000" x1="282.58" y1="66.85" x2="251.797" y2="68.249"/>
<polygon points="237.264,380.125 241.16,377.352 241.985,382.633 "/>
<line fill="none" stroke="#000000" x1="219.228" y1="350.656" x2="239.213" y2="378.739"/>
<line fill="none" stroke="#000000" stroke-width="2" x1="159.776" y1="73.145" x2="159.734" y2="68.364"/>
<line fill="none" stroke="#000000" x1="117.319" y1="71.135" x2="159.754" y2="70.754"/>
<polygon points="60.139,273.114 55.617,274.67 56.323,269.37 "/>
<line fill="none" stroke="#000000" x1="96.431" y1="385.922" x2="57.878" y2="273.893"/>
<line fill="none" stroke="#000000" stroke-width="2" x1="348.915" y1="157.82" x2="348.928" y2="162.602"/>
<line fill="none" stroke="#000000" x1="385.68" y1="160.114" x2="348.921" y2="160.212"/>
</svg>
