<?xml version="1.0" encoding="utf-8"?>
<!-- Generator: Adobe Illustrator 16.0.0, SVG Export Plug-In . SVG Version: 6.00 Build 0)  -->
<!DOCTYPE svg PUBLIC "-//W3C//DTD SVG 1.1//EN" "http://www.w3.org/Graphics/SVG/1.1/DTD/svg11.dtd">
<svg version="1.1" id="图层_1" xmlns="http://www.w3.org/2000/svg" xmlns:xlink="http://www.w3.org/1999/xlink" x="0px" y="0px"
	 width="588.619px" height="384.602px" viewBox="0 0 588.619 384.602" enable-background="new 0 0 588.619 384.602"
	 xml:space="preserve">
<rect x="252.949" y="365.661" fill="#FFFFFF" fill-opacity="0" width="53.778" height="14.341"/>
<text transform="matrix(1 0 0 1 259.3015 375.8201)" font-family="'ArialMT'" font-size="8.3656">Translation</text>
<path fill="#FFFFFF" fill-opacity="0.5" stroke="#000000" d="M13.334,191.777h82.461c1.979,0,3.586,1.604,3.586,3.586v23.9
	c0,1.98-1.605,3.586-3.586,3.586H13.334c-1.979,0-3.584-1.604-3.584-3.586v-23.901C9.75,193.382,11.355,191.777,13.334,191.777z"/>
<text transform="matrix(1 0 0 1 39.0681 201.3386)" font-family="'ArialMT'" font-size="8.3656">PTPN11</text>
<rect x="12.737" y="204.923" fill="#FFF8F8" stroke="#000000" width="83.655" height="14.938"/>
<text transform="matrix(1 0 0 1 42.614 215.1804)" font-family="'ArialMT'" font-size="8.3656">&lt;0.5%</text>
<rect x="197.678" y="188.49" fill="#FFFFFF" fill-opacity="0.5" stroke="#CCCCCC" stroke-width="2" width="381.829" height="37.646"/>
<text transform="matrix(1 0 0 1 379.9915 235.697)" font-family="'ArialMT'" font-size="8.3656">RAS</text>
<path fill="#FFFFFF" fill-opacity="0.5" stroke="#000000" d="M394.567,191.777h82.461c1.98,0,3.585,1.604,3.585,3.586v23.9
	c0,1.98-1.604,3.586-3.585,3.586h-82.461c-1.979,0-3.586-1.604-3.586-3.586v-23.901
	C390.981,193.382,392.587,191.777,394.567,191.777z"/>
<text transform="matrix(1 0 0 1 424.175 201.3386)" font-family="'ArialMT'" font-size="8.3656">NRAS</text>
<rect x="393.97" y="204.923" fill="#FFFFFF" stroke="#000000" width="83.656" height="14.938"/>
<text transform="matrix(1 0 0 1 426.2375 215.1804)" font-family="'ArialMT'" font-size="8.3656">0.0%</text>
<path fill="#FFFFFF" fill-opacity="0.5" stroke="#000000" d="M298.961,191.777h82.461c1.979,0,3.584,1.604,3.584,3.586v23.9
	c0,1.98-1.604,3.586-3.584,3.586h-82.461c-1.98,0-3.586-1.604-3.586-3.586v-23.901C295.375,193.382,296.98,191.777,298.961,191.777z
	"/>
<text transform="matrix(1 0 0 1 328.5696 201.3386)" font-family="'ArialMT'" font-size="8.3656">HRAS</text>
<rect x="298.363" y="204.923" fill="#FFFFFF" stroke="#000000" width="83.655" height="14.938"/>
<text transform="matrix(1 0 0 1 330.6301 215.1804)" font-family="'ArialMT'" font-size="8.3656">0.0%</text>
<path fill="#FFFFFF" fill-opacity="0.5" stroke="#000000" d="M204.549,191.777h82.461c1.979,0,3.585,1.604,3.585,3.586v23.9
	c0,1.98-1.605,3.586-3.585,3.586h-82.461c-1.98,0-3.585-1.604-3.585-3.586v-23.901C200.964,193.382,202.568,191.777,204.549,191.777
	z"/>
<text transform="matrix(1 0 0 1 234.3884 201.3386)" font-family="'ArialMT'" font-size="8.3656">KRAS</text>
<rect x="203.951" y="204.923" fill="#FFFFFF" stroke="#000000" width="83.654" height="14.938"/>
<text transform="matrix(1 0 0 1 236.2175 215.1804)" font-family="'ArialMT'" font-size="8.3656">0.0%</text>
<path fill="#FFFFFF" fill-opacity="0.5" stroke="#000000" d="M490.175,191.777h82.461c1.979,0,3.584,1.604,3.584,3.586v23.9
	c0,1.98-1.604,3.586-3.584,3.586h-82.461c-1.98,0-3.586-1.604-3.586-3.586v-23.901C486.589,193.382,488.194,191.777,490.175,191.777
	z"/>
<text transform="matrix(1 0 0 1 522.3391 210.3386)" font-family="'ArialMT'" font-size="8.3656">RIT1</text>
<path fill="#FFFFFF" fill-opacity="0.5" stroke="#000000" d="M13.334,140.387h82.461c1.979,0,3.586,1.605,3.586,3.585v23.902
	c0,1.98-1.605,3.585-3.586,3.585H13.334c-1.979,0-3.584-1.604-3.584-3.585v-23.902C9.75,141.993,11.355,140.387,13.334,140.387z"/>
<text transform="matrix(1 0 0 1 46.4285 149.949)" font-family="'ArialMT'" font-size="8.3656">CBL</text>
<rect x="12.737" y="153.534" fill="#FFF8F8" stroke="#000000" width="83.655" height="14.938"/>
<text transform="matrix(1 0 0 1 42.614 163.7917)" font-family="'ArialMT'" font-size="8.3656">&lt;0.5%</text>
<rect x="56.956" y="366.26" fill="#FFFFFF" fill-opacity="0" width="60.948" height="14.342"/>
<text transform="matrix(1 0 0 1 65.1121 376.4177)" font-family="'ArialMT'" font-size="8.3656">Proliferation</text>
<path fill="#FFFFFF" fill-opacity="0.5" stroke="#000000" d="M394.567,140.387h82.461c1.98,0,3.585,1.605,3.585,3.585v23.902
	c0,1.98-1.604,3.585-3.585,3.585h-82.461c-1.979,0-3.586-1.604-3.586-3.585v-23.902
	C390.981,141.993,392.587,140.387,394.567,140.387z"/>
<text transform="matrix(1 0 0 1 427.8958 149.949)" font-family="'ArialMT'" font-size="8.3656">NF1</text>
<rect x="393.97" y="153.534" fill="#FFF8F8" stroke="#000000" width="83.656" height="14.938"/>
<text transform="matrix(1 0 0 1 423.8469 163.7917)" font-family="'ArialMT'" font-size="8.3656">&lt;0.5%</text>
<path fill="#FFFFFF" fill-opacity="0.5" stroke="#000000" d="M108.941,140.387h82.461c1.98,0,3.586,1.605,3.586,3.585v23.902
	c0,1.98-1.604,3.585-3.586,3.585h-82.461c-1.979,0-3.585-1.604-3.585-3.585v-23.902
	C105.356,141.993,106.962,140.387,108.941,140.387z"/>
<text transform="matrix(1 0 0 1 135.2976 149.949)" font-family="'ArialMT'" font-size="8.3656">ERRFI1</text>
<rect x="108.344" y="153.534" fill="#FFFFFF" stroke="#000000" width="83.656" height="14.938"/>
<text transform="matrix(1 0 0 1 140.6111 163.7917)" font-family="'ArialMT'" font-size="8.3656">0.0%</text>
<path fill="#FFFFFF" fill-opacity="0.5" stroke="#000000" d="M79.064,289.177h82.461c1.98,0,3.585,1.604,3.585,3.585v23.902
	c0,1.979-1.604,3.585-3.585,3.585H79.064c-1.979,0-3.586-1.604-3.586-3.585v-23.902C75.479,290.781,77.084,289.177,79.064,289.177z"
	/>
<text transform="matrix(1 0 0 1 109.1375 298.738)" font-family="'ArialMT'" font-size="8.3656">RAC1</text>
<rect x="78.467" y="302.323" fill="#FFFFFF" stroke="#000000" width="83.656" height="14.938"/>
<text transform="matrix(1 0 0 1 110.7332 312.5808)" font-family="'ArialMT'" font-size="8.3656">0.0%</text>
<rect x="292.088" y="285.889" fill="#FFFFFF" fill-opacity="0.5" stroke="#CCCCCC" stroke-width="2" width="191.812" height="37.646"/>
<text transform="matrix(1 0 0 1 378.9309 333.0955)" font-family="'ArialMT'" font-size="8.3656">MEK</text>
<path fill="#FFFFFF" fill-opacity="0.5" stroke="#000000" d="M394.567,289.177h82.461c1.98,0,3.585,1.604,3.585,3.585v23.902
	c0,1.979-1.604,3.585-3.585,3.585h-82.461c-1.979,0-3.586-1.604-3.586-3.585v-23.902
	C390.981,290.781,392.587,289.177,394.567,289.177z"/>
<text transform="matrix(1 0 0 1 419.2922 298.738)" font-family="'ArialMT'" font-size="8.3656">MAP2K2</text>
<rect x="393.97" y="302.323" fill="#FFFFFF" stroke="#000000" width="83.656" height="14.938"/>
<text transform="matrix(1 0 0 1 426.2375 312.5808)" font-family="'ArialMT'" font-size="8.3656">0.0%</text>
<path fill="#FFFFFF" fill-opacity="0.5" stroke="#000000" d="M298.961,289.177h82.461c1.979,0,3.584,1.604,3.584,3.585v23.902
	c0,1.979-1.604,3.585-3.584,3.585h-82.461c-1.98,0-3.586-1.604-3.586-3.585v-23.902C295.375,290.781,296.98,289.177,298.961,289.177
	z"/>
<text transform="matrix(1 0 0 1 323.6848 298.738)" font-family="'ArialMT'" font-size="8.3656">MAP2K1</text>
<rect x="298.363" y="302.323" fill="#FFFFFF" stroke="#000000" width="83.655" height="14.938"/>
<text transform="matrix(1 0 0 1 330.6301 312.5808)" font-family="'ArialMT'" font-size="8.3656">0.0%</text>
<path fill="#FFFFFF" fill-opacity="0.5" stroke="#000000" d="M180.05,289.177h82.461c1.979,0,3.585,1.604,3.585,3.585v23.902
	c0,1.979-1.605,3.585-3.585,3.585H180.05c-1.98,0-3.586-1.604-3.586-3.585v-23.902C176.464,290.781,178.069,289.177,180.05,289.177z
	"/>
<text transform="matrix(1 0 0 1 207.0984 298.738)" font-family="'ArialMT'" font-size="8.3656">MAPK1</text>
<rect x="179.452" y="302.323" fill="#FFFFFF" stroke="#000000" width="83.655" height="14.938"/>
<text transform="matrix(1 0 0 1 211.7195 312.5808)" font-family="'ArialMT'" font-size="8.3656">0.0%</text>
<rect x="292.088" y="236.891" fill="#FFFFFF" fill-opacity="0.5" stroke="#CCCCCC" stroke-width="2" width="287.419" height="37.646"/>
<text transform="matrix(1 0 0 1 427.4329 284.0964)" font-family="'ArialMT'" font-size="8.3656">RAF</text>
<path fill="#FFFFFF" fill-opacity="0.5" stroke="#000000" d="M298.961,240.177h82.461c1.979,0,3.584,1.605,3.584,3.586v23.9
	c0,1.98-1.604,3.586-3.584,3.586h-82.461c-1.98,0-3.586-1.604-3.586-3.586v-23.9C295.375,241.783,296.98,240.177,298.961,240.177z"
	/>
<text transform="matrix(1 0 0 1 329.0364 249.74)" font-family="'ArialMT'" font-size="8.3656">ARAF</text>
<rect x="298.363" y="253.323" fill="#FFFFFF" stroke="#000000" width="83.655" height="14.939"/>
<text transform="matrix(1 0 0 1 330.6301 263.5818)" font-family="'ArialMT'" font-size="8.3656">0.0%</text>
<path fill="#FFFFFF" fill-opacity="0.5" stroke="#000000" d="M490.175,240.177h82.461c1.979,0,3.584,1.605,3.584,3.586v23.9
	c0,1.98-1.604,3.586-3.584,3.586h-82.461c-1.98,0-3.586-1.604-3.586-3.586v-23.9C486.589,241.783,488.194,240.177,490.175,240.177z"
	/>
<text transform="matrix(1 0 0 1 520.7122 249.74)" font-family="'ArialMT'" font-size="8.3656">RAF1</text>
<rect x="489.576" y="253.323" fill="#FFF8F8" stroke="#000000" width="83.655" height="14.939"/>
<text transform="matrix(1 0 0 1 519.4543 263.5818)" font-family="'ArialMT'" font-size="8.3656">&lt;0.5%</text>
<path fill="#FFFFFF" fill-opacity="0.5" stroke="#000000" d="M394.567,240.177h82.461c1.98,0,3.585,1.605,3.585,3.586v23.9
	c0,1.98-1.604,3.586-3.585,3.586h-82.461c-1.979,0-3.586-1.604-3.586-3.586v-23.9C390.981,241.783,392.587,240.177,394.567,240.177z
	"/>
<text transform="matrix(1 0 0 1 424.6418 249.74)" font-family="'ArialMT'" font-size="8.3656">BRAF</text>
<rect x="393.97" y="253.323" fill="#FFF8F8" stroke="#000000" width="83.656" height="14.939"/>
<text transform="matrix(1 0 0 1 423.8469 263.5818)" font-family="'ArialMT'" font-size="8.3656">&lt;0.5%</text>
<path fill="#FFFFFF" fill-opacity="0.5" stroke="#000000" d="M489.576,140.387h82.461c1.979,0,3.584,1.605,3.584,3.585v23.902
	c0,1.98-1.604,3.585-3.584,3.585h-82.461c-1.979,0-3.586-1.604-3.586-3.585v-23.902C485.99,141.993,487.597,140.387,489.576,140.387
	z"/>
<text transform="matrix(1 0 0 1 517.0911 158.949)" font-family="'ArialMT'" font-size="8.3656">RASA1</text>
<rect x="151.966" y="366.26" fill="#FFFFFF" fill-opacity="0" width="60.948" height="14.342"/>
<text transform="matrix(1 0 0 1 159.8933 376.4177)" font-family="'ArialMT'" font-size="8.3656">Cell survival</text>
<path fill="#FFFFFF" fill-opacity="0.5" stroke="#000000" d="M298.961,140.387h82.461c1.979,0,3.584,1.605,3.584,3.585v23.902
	c0,1.98-1.604,3.585-3.584,3.585h-82.461c-1.98,0-3.586-1.604-3.586-3.585v-23.902C295.375,141.993,296.98,140.387,298.961,140.387z
	"/>
<text transform="matrix(1 0 0 1 329.0305 158.949)" font-family="'ArialMT'" font-size="8.3656">SOS1</text>
<rect x="6.463" y="5.045" fill="#FFFFFF" fill-opacity="0.5" stroke="#CCCCCC" stroke-width="2" width="573.044" height="112.338"/>
<text transform="matrix(1 0 0 1 282.6033 126.9431)" font-family="'ArialMT'" font-size="8.3656">RTKs</text>
<path fill="#FFFFFF" fill-opacity="0.5" stroke="#000000" d="M108.941,83.025h82.461c1.98,0,3.586,1.604,3.586,3.585v23.9
	c0,1.98-1.604,3.586-3.586,3.586h-82.461c-1.979,0-3.585-1.604-3.585-3.586v-23.9C105.356,84.629,106.962,83.025,108.941,83.025z"/>
<text transform="matrix(1 0 0 1 138.781 92.5857)" font-family="'ArialMT'" font-size="8.3656">ROS1</text>
<rect x="108.344" y="96.17" fill="#FFFFFF" stroke="#000000" width="83.656" height="14.938"/>
<text transform="matrix(1 0 0 1 140.6111 106.4285)" font-family="'ArialMT'" font-size="8.3656">0.0%</text>
<path fill="#FFFFFF" fill-opacity="0.5" stroke="#000000" d="M394.567,45.977h82.461c1.98,0,3.585,1.604,3.585,3.585v23.901
	c0,1.979-1.604,3.585-3.585,3.585h-82.461c-1.979,0-3.586-1.604-3.586-3.585V49.562C390.981,47.581,392.587,45.977,394.567,45.977z"
	/>
<text transform="matrix(1 0 0 1 429.2903 55.5369)" font-family="'ArialMT'" font-size="8.3656">KIT</text>
<rect x="393.97" y="59.122" fill="#FFFFFF" stroke="#000000" width="83.656" height="14.938"/>
<text transform="matrix(1 0 0 1 426.2375 69.3796)" font-family="'ArialMT'" font-size="8.3656">0.0%</text>
<path fill="#FFFFFF" fill-opacity="0.5" stroke="#000000" d="M13.334,83.025h82.461c1.979,0,3.586,1.604,3.586,3.585v23.9
	c0,1.98-1.605,3.586-3.586,3.586H13.334c-1.979,0-3.584-1.604-3.584-3.586v-23.9C9.75,84.629,11.355,83.025,13.334,83.025z"/>
<text transform="matrix(1 0 0 1 46.2 92.5857)" font-family="'ArialMT'" font-size="8.3656">RET</text>
<rect x="12.737" y="96.17" fill="#FFF8F8" stroke="#000000" width="83.655" height="14.938"/>
<text transform="matrix(1 0 0 1 42.614 106.4285)" font-family="'ArialMT'" font-size="8.3656">&lt;0.5%</text>
<path fill="#FFFFFF" fill-opacity="0.5" stroke="#000000" d="M298.961,83.025h82.461c1.979,0,3.584,1.604,3.584,3.585v23.9
	c0,1.98-1.604,3.586-3.584,3.586h-82.461c-1.98,0-3.586-1.604-3.586-3.586v-23.9C295.375,84.629,296.98,83.025,298.961,83.025z"/>
<text transform="matrix(1 0 0 1 330.7375 92.5857)" font-family="'ArialMT'" font-size="8.3656">FLT3</text>
<rect x="298.363" y="96.17" fill="#FFFFFF" stroke="#000000" width="83.655" height="14.938"/>
<text transform="matrix(1 0 0 1 330.6301 106.4285)" font-family="'ArialMT'" font-size="8.3656">0.0%</text>
<path fill="#FFFFFF" fill-opacity="0.5" stroke="#000000" d="M490.175,83.025h82.461c1.979,0,3.584,1.604,3.584,3.585v23.9
	c0,1.98-1.604,3.586-3.584,3.586h-82.461c-1.98,0-3.586-1.604-3.586-3.586v-23.9C486.589,84.629,488.194,83.025,490.175,83.025z"/>
<text transform="matrix(1 0 0 1 517.6926 92.5857)" font-family="'ArialMT'" font-size="8.3656">NTRK2</text>
<rect x="489.576" y="96.17" fill="#FFFFFF" stroke="#000000" width="83.655" height="14.938"/>
<text transform="matrix(1 0 0 1 521.843 106.4285)" font-family="'ArialMT'" font-size="8.3656">0.0%</text>
<path fill="#FFFFFF" fill-opacity="0.5" stroke="#000000" d="M204.549,45.977h82.461c1.979,0,3.585,1.604,3.585,3.585v23.901
	c0,1.979-1.605,3.585-3.585,3.585h-82.461c-1.98,0-3.585-1.604-3.585-3.585V49.562C200.964,47.581,202.568,45.977,204.549,45.977z"
	/>
<text transform="matrix(1 0 0 1 232.0691 55.5369)" font-family="'ArialMT'" font-size="8.3656">FGFR3</text>
<rect x="203.951" y="59.122" fill="#FFF8F8" stroke="#000000" width="83.654" height="14.938"/>
<text transform="matrix(1 0 0 1 233.8269 69.3796)" font-family="'ArialMT'" font-size="8.3656">&lt;0.5%</text>
<path fill="#FFFFFF" fill-opacity="0.5" stroke="#000000" d="M394.567,8.331h82.461c1.98,0,3.585,1.605,3.585,3.585v23.902
	c0,1.979-1.604,3.585-3.585,3.585h-82.461c-1.979,0-3.586-1.605-3.586-3.585V11.916C390.981,9.937,392.587,8.331,394.567,8.331z"/>
<text transform="matrix(1 0 0 1 426.968 17.8923)" font-family="'ArialMT'" font-size="8.3656">MET</text>
<rect x="393.97" y="21.478" fill="#FFF8F8" stroke="#000000" width="83.656" height="14.938"/>
<text transform="matrix(1 0 0 1 423.8469 31.7351)" font-family="'ArialMT'" font-size="8.3656">&lt;0.5%</text>
<path fill="#FFFFFF" fill-opacity="0.5" stroke="#000000" d="M13.334,45.977h82.461c1.979,0,3.586,1.604,3.586,3.585v23.901
	c0,1.979-1.605,3.585-3.586,3.585H13.334c-1.979,0-3.584-1.604-3.584-3.585V49.562C9.75,47.581,11.355,45.977,13.334,45.977z"/>
<text transform="matrix(1 0 0 1 40.8552 55.5369)" font-family="'ArialMT'" font-size="8.3656">FGFR1</text>
<rect x="12.737" y="59.122" fill="#FFFFFF" stroke="#000000" width="83.655" height="14.938"/>
<text transform="matrix(1 0 0 1 45.0046 69.3796)" font-family="'ArialMT'" font-size="8.3656">0.0%</text>
<path fill="#FFFFFF" fill-opacity="0.5" stroke="#000000" d="M108.941,45.977h82.461c1.98,0,3.586,1.604,3.586,3.585v23.901
	c0,1.979-1.604,3.585-3.586,3.585h-82.461c-1.979,0-3.585-1.604-3.585-3.585V49.562C105.356,47.581,106.962,45.977,108.941,45.977z"
	/>
<text transform="matrix(1 0 0 1 136.4617 55.5369)" font-family="'ArialMT'" font-size="8.3656">FGFR2</text>
<rect x="108.344" y="59.122" fill="#FFF8F8" stroke="#000000" width="83.656" height="14.938"/>
<text transform="matrix(1 0 0 1 138.2195 69.3796)" font-family="'ArialMT'" font-size="8.3656">&lt;0.5%</text>
<path fill="#FFFFFF" fill-opacity="0.5" stroke="#000000" d="M108.941,8.331h82.461c1.98,0,3.586,1.605,3.586,3.585v23.902
	c0,1.979-1.604,3.585-3.586,3.585h-82.461c-1.979,0-3.585-1.605-3.585-3.585V11.916C105.356,9.937,106.962,8.331,108.941,8.331z"/>
<text transform="matrix(1 0 0 1 136.4558 17.8923)" font-family="'ArialMT'" font-size="8.3656">ERBB2</text>
<rect x="108.344" y="21.478" fill="#FFF8F8" stroke="#000000" width="83.656" height="14.938"/>
<text transform="matrix(1 0 0 1 138.2195 31.7351)" font-family="'ArialMT'" font-size="8.3656">&lt;0.5%</text>
<path fill="#FFFFFF" fill-opacity="0.5" stroke="#000000" d="M298.961,8.331h82.461c1.979,0,3.584,1.605,3.584,3.585v23.902
	c0,1.979-1.604,3.585-3.584,3.585h-82.461c-1.98,0-3.586-1.605-3.586-3.585V11.916C295.375,9.937,296.98,8.331,298.961,8.331z"/>
<text transform="matrix(1 0 0 1 326.4739 17.8923)" font-family="'ArialMT'" font-size="8.3656">ERBB4</text>
<rect x="298.363" y="21.478" fill="#FFF8F8" stroke="#000000" width="83.655" height="14.938"/>
<text transform="matrix(1 0 0 1 328.2395 31.7351)" font-family="'ArialMT'" font-size="8.3656">&lt;0.5%</text>
<path fill="#FFFFFF" fill-opacity="0.5" stroke="#000000" d="M13.334,8.331h82.461c1.979,0,3.586,1.605,3.586,3.585v23.902
	c0,1.979-1.605,3.585-3.586,3.585H13.334c-1.979,0-3.584-1.605-3.584-3.585V11.916C9.75,9.937,11.355,8.331,13.334,8.331z"/>
<text transform="matrix(1 0 0 1 42.946 17.8923)" font-family="'ArialMT'" font-size="8.3656">EGFR</text>
<rect x="12.737" y="21.478" fill="#FFF8F8" stroke="#000000" width="83.655" height="14.938"/>
<text transform="matrix(1 0 0 1 42.614 31.7351)" font-family="'ArialMT'" font-size="8.3656">&lt;0.5%</text>
<path fill="#FFFFFF" fill-opacity="0.5" stroke="#000000" d="M298.961,45.977h82.461c1.979,0,3.584,1.604,3.584,3.585v23.901
	c0,1.979-1.604,3.585-3.584,3.585h-82.461c-1.98,0-3.586-1.604-3.586-3.585V49.562C295.375,47.581,296.98,45.977,298.961,45.977z"/>
<text transform="matrix(1 0 0 1 326.4817 55.5369)" font-family="'ArialMT'" font-size="8.3656">FGFR4</text>
<rect x="298.363" y="59.122" fill="#FFFFFF" stroke="#000000" width="83.655" height="14.938"/>
<text transform="matrix(1 0 0 1 330.6301 69.3796)" font-family="'ArialMT'" font-size="8.3656">0.0%</text>
<path fill="#FFFFFF" fill-opacity="0.5" stroke="#000000" d="M490.175,45.977h82.461c1.979,0,3.584,1.604,3.584,3.585v23.901
	c0,1.979-1.604,3.585-3.584,3.585h-82.461c-1.98,0-3.586-1.604-3.586-3.585V49.562C486.589,47.581,488.194,45.977,490.175,45.977z"
	/>
<text transform="matrix(1 0 0 1 519.0872 55.5369)" font-family="'ArialMT'" font-size="8.3656">IGF1R</text>
<rect x="489.576" y="59.122" fill="#FFFFFF" stroke="#000000" width="83.655" height="14.938"/>
<text transform="matrix(1 0 0 1 521.843 69.3796)" font-family="'ArialMT'" font-size="8.3656">0.0%</text>
<path fill="#FFFFFF" fill-opacity="0.5" stroke="#000000" d="M204.549,8.331h82.461c1.979,0,3.585,1.605,3.585,3.585v23.902
	c0,1.979-1.605,3.585-3.585,3.585h-82.461c-1.98,0-3.585-1.605-3.585-3.585V11.916C200.964,9.937,202.568,8.331,204.549,8.331z"/>
<text transform="matrix(1 0 0 1 232.0623 17.8923)" font-family="'ArialMT'" font-size="8.3656">ERBB3</text>
<rect x="203.951" y="21.478" fill="#FFFFFF" stroke="#000000" width="83.654" height="14.938"/>
<text transform="matrix(1 0 0 1 236.2175 31.7351)" font-family="'ArialMT'" font-size="8.3656">0.0%</text>
<path fill="#FFFFFF" fill-opacity="0.5" stroke="#000000" d="M204.549,83.025h82.461c1.979,0,3.585,1.604,3.585,3.585v23.9
	c0,1.98-1.605,3.586-3.585,3.586h-82.461c-1.98,0-3.585-1.604-3.585-3.586v-23.9C200.964,84.629,202.568,83.025,204.549,83.025z"/>
<text transform="matrix(1 0 0 1 237.8718 92.5857)" font-family="'ArialMT'" font-size="8.3656">ALK</text>
<rect x="203.951" y="96.17" fill="#FFF8F8" stroke="#000000" width="83.654" height="14.938"/>
<text transform="matrix(1 0 0 1 233.8269 106.4285)" font-family="'ArialMT'" font-size="8.3656">&lt;0.5%</text>
<path fill="#FFFFFF" fill-opacity="0.5" stroke="#000000" d="M394.567,83.025h82.461c1.98,0,3.585,1.604,3.585,3.585v23.9
	c0,1.98-1.604,3.586-3.585,3.586h-82.461c-1.979,0-3.586-1.604-3.586-3.586v-23.9C390.981,84.629,392.587,83.025,394.567,83.025z"/>
<text transform="matrix(1 0 0 1 422.0852 92.5857)" font-family="'ArialMT'" font-size="8.3656">NTRK1</text>
<rect x="393.97" y="96.17" fill="#FFF8F8" stroke="#000000" width="83.656" height="14.938"/>
<text transform="matrix(1 0 0 1 423.8469 106.4285)" font-family="'ArialMT'" font-size="8.3656">&lt;0.5%</text>
<path fill="#FFFFFF" fill-opacity="0.5" stroke="#000000" d="M490.175,8.331h82.461c1.979,0,3.584,1.605,3.584,3.585v23.902
	c0,1.979-1.604,3.585-3.584,3.585h-82.461c-1.98,0-3.586-1.605-3.586-3.585V11.916C486.589,9.937,488.194,8.331,490.175,8.331z"/>
<text transform="matrix(1 0 0 1 513.9739 17.8923)" font-family="'ArialMT'" font-size="8.3656">PDGFRA</text>
<rect x="489.576" y="21.478" fill="#FFFFFF" stroke="#000000" width="83.655" height="14.938"/>
<text transform="matrix(1 0 0 1 521.843 31.7351)" font-family="'ArialMT'" font-size="8.3656">0.0%</text>
<line fill="none" stroke="#000000" stroke-width="2" x1="208.614" y1="120.035" x2="205.971" y2="116.051"/>
<line fill="none" stroke="#000000" x1="173.599" y1="140.387" x2="207.292" y2="118.043"/>
<line fill="none" stroke="#000000" stroke-width="2" x1="404.931" y1="185.993" x2="408.45" y2="189.227"/>
<line fill="none" stroke="#000000" x1="421.526" y1="171.46" x2="406.691" y2="187.611"/>
<line fill="none" stroke="#000000" stroke-width="2" x1="440.993" y1="185.836" x2="442.618" y2="190.332"/>
<line fill="none" stroke="#000000" x1="487.812" y1="171.46" x2="441.807" y2="188.085"/>
<polygon points="268.746,363.594 272.371,360.479 273.675,365.661 "/>
<line fill="none" stroke="#000000" x1="234.635" y1="320.249" x2="270.559" y2="362.037"/>
<polygon points="407.984,280.799 411.406,284.136 406.357,285.889 "/>
<line fill="none" stroke="#000000" x1="417.435" y1="274.537" x2="409.696" y2="282.469"/>
<polygon points="171.684,307.103 171.684,302.323 176.464,304.713 "/>
<line fill="none" stroke="#000000" x1="165.11" y1="304.713" x2="171.684" y2="304.713"/>
<polygon points="270.876,302.323 270.876,307.103 266.096,304.713 "/>
<line fill="none" stroke="#000000" x1="292.088" y1="304.713" x2="270.876" y2="304.713"/>
<polygon points="365.846,186.65 369.324,183.372 370.863,188.49 "/>
<line fill="none" stroke="#000000" x1="354.823" y1="171.46" x2="367.586" y2="185.01"/>
<line fill="none" stroke="#000000" stroke-width="2" x1="151.359" y1="120.045" x2="149.595" y2="115.603"/>
<line fill="none" stroke="#000000" x1="93.676" y1="140.387" x2="150.478" y2="117.824"/>
<polygon points="104.559,361.95 106.741,366.202 101.397,366.26 "/>
<line fill="none" stroke="#000000" x1="191.019" y1="320.249" x2="105.649" y2="364.076"/>
<polygon points="186.764,360.922 190.925,363.275 186.492,366.26 "/>
<line fill="none" stroke="#000000" x1="212.498" y1="320.249" x2="188.845" y2="362.096"/>
<polygon points="328.176,137.176 332.453,135.044 332.447,140.387 "/>
<line fill="none" stroke="#000000" x1="320.981" y1="117.383" x2="330.314" y2="136.111"/>
<polygon points="412.391,235.137 415.813,231.8 417.44,236.891 "/>
<line fill="none" stroke="#000000" x1="406.949" y1="226.135" x2="414.103" y2="233.469"/>
</svg>
