<?xml version="1.0" encoding="utf-8"?>
<!-- Generator: Adobe Illustrator 16.0.0, SVG Export Plug-In . SVG Version: 6.00 Build 0)  -->
<!DOCTYPE svg PUBLIC "-//W3C//DTD SVG 1.1//EN" "http://www.w3.org/Graphics/SVG/1.1/DTD/svg11.dtd">
<svg version="1.1" id="图层_1" xmlns="http://www.w3.org/2000/svg" xmlns:xlink="http://www.w3.org/1999/xlink" x="0px" y="0px"
	 width="607.949px" height="434px" viewBox="0 0 607.949 434" enable-background="new 0 0 607.949 434" xml:space="preserve">
<rect x="410.16" y="130.441" fill="#FFFFFF" fill-opacity="0.5" stroke="#CCCCCC" stroke-width="2" width="192.035" height="74.78"/>
<text transform="matrix(1 0 0 1 497.5667 214.7922)" font-family="'ArialMT'" font-size="8.3753">DKK</text>
<path fill="#FFFFFF" fill-opacity="0.5" stroke="#000000" d="M417.04,133.732h82.559c1.98,0,3.589,1.607,3.589,3.589v23.931
	c0,1.981-1.607,3.59-3.589,3.59H417.04c-1.98,0-3.589-1.607-3.589-3.59v-23.931C413.451,135.339,415.06,133.732,417.04,133.732z"/>
<text transform="matrix(1 0 0 1 447.3792 151.302)" font-family="'ArialMT'" font-size="8.3753">DKK1</text>
<path fill="#FFFFFF" fill-opacity="0.5" stroke="#000000" d="M512.76,133.732h82.556c1.983,0,3.589,1.607,3.589,3.589v23.931
	c0,1.981-1.604,3.59-3.589,3.59H512.76c-1.982,0-3.591-1.607-3.591-3.59v-23.931C509.169,135.339,510.777,133.732,512.76,133.732z"
	/>
<text transform="matrix(1 0 0 1 543.0979 151.302)" font-family="'ArialMT'" font-size="8.3753">DKK2</text>
<path fill="#FFFFFF" fill-opacity="0.5" stroke="#000000" d="M512.76,170.822h82.556c1.983,0,3.589,1.608,3.589,3.591v23.93
	c0,1.982-1.604,3.59-3.589,3.59H512.76c-1.982,0-3.591-1.606-3.591-3.59v-23.93C509.169,172.43,510.777,170.822,512.76,170.822z"/>
<text transform="matrix(1 0 0 1 543.0979 188.3918)" font-family="'ArialMT'" font-size="8.3753">DKK4</text>
<path fill="#FFFFFF" fill-opacity="0.5" stroke="#000000" d="M417.04,170.822h82.559c1.98,0,3.589,1.608,3.589,3.591v23.93
	c0,1.982-1.607,3.59-3.589,3.59H417.04c-1.98,0-3.589-1.606-3.589-3.59v-23.93C413.451,172.43,415.06,170.822,417.04,170.822z"/>
<text transform="matrix(1 0 0 1 447.3792 188.3918)" font-family="'ArialMT'" font-size="8.3753">DKK3</text>
<rect x="388.027" y="339.825" fill="#FFFFFF" fill-opacity="0.5" stroke="#CCCCCC" stroke-width="2" width="189.641" height="73.581"/>
<text transform="matrix(1 0 0 1 466.7834 422.9788)" font-family="'ArialMT'" font-size="8.3753">Groucho</text>
<path fill="#FFFFFF" fill-opacity="0.5" stroke="#000000" d="M394.906,343.115h82.559c1.98,0,3.589,1.606,3.589,3.59v23.93
	c0,1.982-1.607,3.588-3.589,3.588h-82.559c-1.98,0-3.589-1.604-3.589-3.588v-23.93C391.317,344.722,392.925,343.115,394.906,343.115
	z"/>
<text transform="matrix(1 0 0 1 426.1741 360.6838)" font-family="'ArialMT'" font-size="8.3753">TLE1</text>
<path fill="#FFFFFF" fill-opacity="0.5" stroke="#000000" d="M488.232,379.009h82.558c1.981,0,3.589,1.607,3.589,3.588v23.932
	c0,1.982-1.606,3.588-3.589,3.588h-82.558c-1.982,0-3.59-1.604-3.59-3.588v-23.932C484.642,380.616,486.248,379.009,488.232,379.009
	z"/>
<text transform="matrix(1 0 0 1 519.5002 396.5793)" font-family="'ArialMT'" font-size="8.3753">TLE4</text>
<path fill="#FFFFFF" fill-opacity="0.5" stroke="#000000" d="M488.232,343.115h82.558c1.981,0,3.589,1.606,3.589,3.59v23.93
	c0,1.982-1.606,3.588-3.589,3.588h-82.558c-1.982,0-3.59-1.604-3.59-3.588v-23.93C484.642,344.722,486.248,343.115,488.232,343.115z
	"/>
<text transform="matrix(1 0 0 1 519.5002 360.6838)" font-family="'ArialMT'" font-size="8.3753">TLE2</text>
<path fill="#FFFFFF" fill-opacity="0.5" stroke="#000000" d="M394.906,379.009h82.559c1.98,0,3.589,1.607,3.589,3.588v23.932
	c0,1.982-1.607,3.588-3.589,3.588h-82.559c-1.98,0-3.589-1.604-3.589-3.588v-23.932
	C391.317,380.616,392.925,379.009,394.906,379.009z"/>
<text transform="matrix(1 0 0 1 426.1741 396.5793)" font-family="'ArialMT'" font-size="8.3753">TLE3</text>
<path fill="#FFFFFF" fill-opacity="0.5" stroke="#000000" d="M111.343,280.897H193.9c1.982,0,3.589,1.609,3.589,3.59v23.931
	c0,1.981-1.605,3.59-3.589,3.59h-82.557c-1.982,0-3.59-1.607-3.59-3.59v-23.931C107.753,282.507,109.36,280.897,111.343,280.897z"/>
<text transform="matrix(1 0 0 1 144.0095 290.469)" font-family="'ArialMT'" font-size="8.3753">APC</text>
<rect x="110.744" y="294.06" fill="#FFF8F8" stroke="#000000" width="83.754" height="14.955"/>
<text transform="matrix(1 0 0 1 140.655 304.3284)" font-family="'ArialMT'" font-size="8.3753">&lt;0.5%</text>
<path fill="#FFFFFF" fill-opacity="0.5" stroke="#000000" d="M245.348,5.709h82.557c1.982,0,3.59,1.605,3.59,3.589v23.93
	c0,1.982-1.606,3.59-3.59,3.59h-82.557c-1.982,0-3.589-1.606-3.589-3.59V9.298C241.759,7.316,243.365,5.709,245.348,5.709z"/>
<text transform="matrix(1 0 0 1 276.6228 23.2795)" font-family="'ArialMT'" font-size="8.3753">WIF1</text>
<rect x="195.992" y="131.04" fill="#FFFFFF" fill-opacity="0.5" stroke="#000000" width="189.042" height="71.189"/>
<text transform="matrix(1 0 0 1 235.4373 211.801)" font-family="'ArialMT'" font-size="8.3753">WNT Dual Receptor Complex</text>
<path fill="#FFFFFF" fill-opacity="0.5" stroke="#000000" d="M295.6,134.331h82.556c1.983,0,3.591,1.605,3.591,3.589v23.929
	c0,1.983-1.606,3.59-3.591,3.59H295.6c-1.982,0-3.589-1.605-3.589-3.59V137.92C292.011,135.937,293.616,134.331,295.6,134.331z"/>
<text transform="matrix(1 0 0 1 326.4026 143.9006)" font-family="'ArialMT'" font-size="8.3753">LRP5</text>
<rect x="295.001" y="147.492" fill="#FFFFFF" stroke="#000000" width="83.753" height="14.954"/>
<text transform="matrix(1 0 0 1 327.3049 157.76)" font-family="'ArialMT'" font-size="8.3753">0.0%</text>
<path fill="#FFFFFF" fill-opacity="0.5" stroke="#000000" d="M202.873,149.286h82.556c1.983,0,3.59,1.606,3.59,3.59v23.93
	c0,1.981-1.605,3.589-3.59,3.589h-82.556c-1.982,0-3.59-1.606-3.59-3.589v-23.93C199.283,150.893,200.891,149.286,202.873,149.286z"
	/>
<text transform="matrix(1 0 0 1 233.9167 166.8577)" font-family="'ArialMT'" font-size="8.3753">FZDs</text>
<path fill="#FFFFFF" fill-opacity="0.5" stroke="#000000" d="M295.6,167.832h82.556c1.983,0,3.591,1.605,3.591,3.589v23.93
	c0,1.982-1.606,3.59-3.591,3.59H295.6c-1.982,0-3.589-1.606-3.589-3.59v-23.93C292.011,169.438,293.616,167.832,295.6,167.832z"/>
<text transform="matrix(1 0 0 1 326.4026 177.4026)" font-family="'ArialMT'" font-size="8.3753">LRP6</text>
<rect x="295.001" y="180.993" fill="#FFFFFF" stroke="#000000" width="83.753" height="14.954"/>
<text transform="matrix(1 0 0 1 327.3049 191.262)" font-family="'ArialMT'" font-size="8.3753">0.0%</text>
<rect x="57.501" y="376.616" fill="#FFFFFF" fill-opacity="0" width="78.968" height="14.356"/>
<text transform="matrix(1 0 0 1 66.7263 386.7844)" font-family="'ArialMT'" font-size="8.3753">Cell proliferation</text>
<rect x="172.064" y="344.013" fill="#FFFFFF" fill-opacity="0.5" stroke="#000000" width="190.838" height="72.983"/>
<text transform="matrix(1 0 0 1 250.4978 426.5676)" font-family="'ArialMT'" font-size="8.3753">TCF/LEF</text>
<path fill="#FFFFFF" fill-opacity="0.5" stroke="#000000" d="M178.943,382.597H261.5c1.981,0,3.589,1.609,3.589,3.592v23.928
	c0,1.982-1.606,3.593-3.589,3.593h-82.558c-1.981,0-3.59-1.609-3.59-3.593v-23.928C175.354,384.206,176.961,382.597,178.943,382.597
	z"/>
<text transform="matrix(1 0 0 1 205.0935 400.1682)" font-family="'ArialMT'" font-size="8.3753">TCF7L1</text>
<path fill="#FFFFFF" fill-opacity="0.5" stroke="#000000" d="M273.465,381.999h82.557c1.982,0,3.59,1.606,3.59,3.59v23.93
	c0,1.982-1.606,3.59-3.59,3.59h-82.557c-1.982,0-3.59-1.606-3.59-3.59v-23.93C269.875,383.606,271.483,381.999,273.465,381.999z"/>
<text transform="matrix(1 0 0 1 299.615 391.5686)" font-family="'ArialMT'" font-size="8.3753">TCF7L2</text>
<rect x="272.865" y="395.161" fill="#FFFFFF" stroke="#000000" width="83.753" height="14.954"/>
<text transform="matrix(1 0 0 1 305.1702 405.4299)" font-family="'ArialMT'" font-size="8.3753">0.0%</text>
<path fill="#FFFFFF" fill-opacity="0.5" stroke="#000000" d="M227.4,347.302h82.558c1.981,0,3.59,1.607,3.59,3.59v23.93
	c0,1.982-1.607,3.591-3.59,3.591H227.4c-1.981,0-3.589-1.607-3.589-3.591v-23.93C223.812,348.909,225.418,347.302,227.4,347.302z"/>
<text transform="matrix(1 0 0 1 258.2087 364.8713)" font-family="'ArialMT'" font-size="8.3753">TCF7</text>
<rect x="326.407" y="230.946" fill="#FFFFFF" fill-opacity="0.5" stroke="#CCCCCC" stroke-width="2" width="191.437" height="37.688"/>
<text transform="matrix(1 0 0 1 412.3518 278.2043)" font-family="'ArialMT'" font-size="8.3753">AXIN</text>
<path fill="#FFFFFF" fill-opacity="0.5" stroke="#000000" d="M333.288,234.235h82.557c1.981,0,3.59,1.607,3.59,3.591v23.93
	c0,1.981-1.607,3.588-3.59,3.588h-82.557c-1.982,0-3.59-1.605-3.59-3.588v-23.93C329.698,235.843,331.306,234.235,333.288,234.235z"
	/>
<text transform="matrix(1 0 0 1 362.4631 243.8049)" font-family="'ArialMT'" font-size="8.3753">AXIN1</text>
<rect x="332.691" y="247.395" fill="#FFFFFF" stroke="#000000" width="83.753" height="14.957"/>
<text transform="matrix(1 0 0 1 364.9944 257.6643)" font-family="'ArialMT'" font-size="8.3753">0.0%</text>
<path fill="#FFFFFF" fill-opacity="0.5" stroke="#000000" d="M428.407,234.235h82.558c1.981,0,3.589,1.607,3.589,3.591v23.93
	c0,1.981-1.606,3.588-3.589,3.588h-82.558c-1.981,0-3.59-1.605-3.59-3.588v-23.93C424.818,235.843,426.426,234.235,428.407,234.235z
	"/>
<text transform="matrix(1 0 0 1 457.5823 243.8049)" font-family="'ArialMT'" font-size="8.3753">AXIN2</text>
<rect x="427.81" y="247.395" fill="#FFFFFF" stroke="#000000" width="83.753" height="14.957"/>
<text transform="matrix(1 0 0 1 460.1135 257.6643)" font-family="'ArialMT'" font-size="8.3753">0.0%</text>
<path fill="#FFFFFF" fill-opacity="0.5" stroke="#000000" d="M61.091,150.483h82.557c1.982,0,3.59,1.606,3.59,3.589v23.931
	c0,1.981-1.606,3.59-3.59,3.59H61.091c-1.982,0-3.59-1.607-3.59-3.59v-23.931C57.501,152.089,59.108,150.483,61.091,150.483z"/>
<text transform="matrix(1 0 0 1 89.1033 160.053)" font-family="'ArialMT'" font-size="8.3753">RNF43</text>
<rect x="60.491" y="163.644" fill="#FFFFFF" stroke="#000000" width="83.755" height="14.955"/>
<text transform="matrix(1 0 0 1 92.7966 173.9104)" font-family="'ArialMT'" font-size="8.3753">0.0%</text>
<path fill="#FFFFFF" fill-opacity="0.5" stroke="#000000" d="M224.408,259.362h82.558c1.981,0,3.589,1.605,3.589,3.589v23.932
	c0,1.979-1.606,3.588-3.589,3.588h-82.558c-1.981,0-3.589-1.606-3.589-3.588V262.95C220.82,260.968,222.427,259.362,224.408,259.362
	z"/>
<text transform="matrix(1 0 0 1 248.9343 268.9319)" font-family="'ArialMT'" font-size="8.3753">CTNNB1</text>
<rect x="223.812" y="272.522" fill="#FFFFFF" stroke="#000000" width="83.753" height="14.957"/>
<text transform="matrix(1 0 0 1 256.116 282.7922)" font-family="'ArialMT'" font-size="8.3753">0.0%</text>
<rect x="5.754" y="33.527" fill="#FFFFFF" fill-opacity="0.5" stroke="#CCCCCC" stroke-width="2" width="186.649" height="105.29"/>
<text transform="matrix(1 0 0 1 87.9089 148.387)" font-family="'ArialMT'" font-size="8.3753">SFRP</text>
<path fill="#FFFFFF" fill-opacity="0.5" stroke="#000000" d="M102.967,36.818h82.558c1.981,0,3.589,1.606,3.589,3.59v23.93
	c0,1.981-1.606,3.59-3.589,3.59h-82.558c-1.981,0-3.589-1.607-3.589-3.59v-23.93C99.378,38.424,100.985,36.818,102.967,36.818z"/>
<text transform="matrix(1 0 0 1 130.7468 54.3889)" font-family="'ArialMT'" font-size="8.3753">SFRP3</text>
<path fill="#FFFFFF" fill-opacity="0.5" stroke="#000000" d="M12.634,57.158h82.557c1.982,0,3.589,1.606,3.589,3.589v23.93
	c0,1.982-1.605,3.59-3.589,3.59H12.634c-1.982,0-3.59-1.606-3.59-3.59v-23.93C9.044,58.765,10.651,57.158,12.634,57.158z"/>
<text transform="matrix(1 0 0 1 40.4138 66.7288)" font-family="'ArialMT'" font-size="8.3753">SFRP1</text>
<rect x="12.034" y="70.319" fill="#FFFFFF" stroke="#000000" width="83.754" height="14.956"/>
<text transform="matrix(1 0 0 1 44.3406 80.5862)" font-family="'ArialMT'" font-size="8.3753">0.0%</text>
<path fill="#FFFFFF" fill-opacity="0.5" stroke="#000000" d="M12.634,90.659h82.557c1.982,0,3.589,1.606,3.589,3.589v23.931
	c0,1.981-1.605,3.589-3.589,3.589H12.634c-1.982,0-3.59-1.606-3.59-3.589V94.248C9.044,92.266,10.651,90.659,12.634,90.659z"/>
<text transform="matrix(1 0 0 1 40.4138 100.2297)" font-family="'ArialMT'" font-size="8.3753">SFRP2</text>
<rect x="12.034" y="103.82" fill="#FFFFFF" stroke="#000000" width="83.754" height="14.956"/>
<text transform="matrix(1 0 0 1 44.3406 114.0881)" font-family="'ArialMT'" font-size="8.3753">0.0%</text>
<path fill="#FFFFFF" fill-opacity="0.5" stroke="#000000" d="M102.967,104.418h82.558c1.981,0,3.589,1.605,3.589,3.589v23.93
	c0,1.982-1.606,3.59-3.589,3.59h-82.558c-1.981,0-3.589-1.606-3.589-3.59v-23.93C99.378,106.025,100.985,104.418,102.967,104.418z"
	/>
<text transform="matrix(1 0 0 1 130.7468 121.9885)" font-family="'ArialMT'" font-size="8.3753">SFRP5</text>
<path fill="#FFFFFF" fill-opacity="0.5" stroke="#000000" d="M102.967,70.917h82.558c1.981,0,3.589,1.605,3.589,3.589v23.929
	c0,1.983-1.606,3.59-3.589,3.59h-82.558c-1.981,0-3.589-1.605-3.589-3.59V74.506C99.378,72.524,100.985,70.917,102.967,70.917z"/>
<text transform="matrix(1 0 0 1 130.7468 88.4885)" font-family="'ArialMT'" font-size="8.3753">SFRP4</text>
<path fill="#FFFFFF" fill-opacity="0.5" stroke="#000000" d="M245.348,69.72h82.557c1.982,0,3.59,1.607,3.59,3.59V97.24
	c0,1.98-1.606,3.59-3.59,3.59h-82.557c-1.982,0-3.589-1.608-3.589-3.59V73.31C241.759,71.328,243.365,69.72,245.348,69.72z"/>
<text transform="matrix(1 0 0 1 262.7322 88.2639)" font-family="'ArialMT'" font-size="8.3753">WNT ligands</text>
<path fill="#FFFFFF" fill-opacity="0.5" stroke="#000000" d="M111.343,236.03H193.9c1.982,0,3.589,1.607,3.589,3.591v23.93
	c0,1.981-1.605,3.588-3.589,3.588h-82.557c-1.982,0-3.59-1.604-3.59-3.588v-23.93C107.753,237.638,109.36,236.03,111.343,236.03z"/>
<text transform="matrix(1 0 0 1 138.655 245.5999)" font-family="'ArialMT'" font-size="8.3753">GSK3B</text>
<rect x="110.744" y="249.192" fill="#FFFFFF" stroke="#000000" width="83.754" height="14.955"/>
<text transform="matrix(1 0 0 1 143.0486 259.4592)" font-family="'ArialMT'" font-size="8.3753">0.0%</text>
<path fill="#FFFFFF" fill-opacity="0.5" stroke="#000000" d="M333.288,279.702h82.557c1.981,0,3.59,1.606,3.59,3.588v23.93
	c0,1.982-1.607,3.59-3.59,3.59h-82.557c-1.982,0-3.59-1.606-3.59-3.59v-23.93C329.698,281.31,331.306,279.702,333.288,279.702z"/>
<text transform="matrix(1 0 0 1 360.1389 289.2717)" font-family="'ArialMT'" font-size="8.3753">AMER1</text>
<rect x="332.691" y="292.862" fill="#FFFFFF" stroke="#000000" width="83.753" height="14.957"/>
<text transform="matrix(1 0 0 1 364.9944 303.1331)" font-family="'ArialMT'" font-size="8.3753">0.0%</text>
<line fill="none" stroke="#000000" stroke-width="2" x1="240.573" y1="87.888" x2="240.55" y2="83.102"/>
<line fill="none" stroke="#000000" x1="192.404" y1="85.725" x2="240.562" y2="85.495"/>
<line fill="none" stroke="#000000" stroke-width="2" x1="312.171" y1="281.165" x2="311.292" y2="285.87"/>
<line fill="none" stroke="#000000" x1="329.698" y1="286.874" x2="311.732" y2="283.517"/>
<polygon points="180.689,231.483 183.198,235.558 177.868,236.03 "/>
<line fill="none" stroke="#000000" x1="232.735" y1="202.23" x2="181.943" y2="233.52"/>
<line fill="none" stroke="#000000" stroke-width="2" x1="194.789" y1="168.723" x2="194.804" y2="163.937"/>
<line fill="none" stroke="#000000" x1="147.237" y1="166.179" x2="194.797" y2="166.331"/>
<line fill="none" stroke="#000000" stroke-width="2" x1="219.164" y1="267.761" x2="220.132" y2="263.073"/>
<line fill="none" stroke="#000000" x1="197.488" y1="260.843" x2="219.649" y2="265.415"/>
<polygon points="141.207,380.548 141.3,385.331 136.469,383.032 "/>
<line fill="none" stroke="#000000" x1="172.064" y1="382.345" x2="141.254" y2="382.94"/>
<polygon points="286.194,126.374 290.976,126.145 288.814,131.04 "/>
<line fill="none" stroke="#000000" x1="287.368" y1="100.83" x2="288.584" y2="126.259"/>
<polygon points="386.977,230.412 389.532,226.367 392.301,230.946 "/>
<line fill="none" stroke="#000000" x1="346.853" y1="202.23" x2="388.255" y2="228.389"/>
<line fill="none" stroke="#000000" stroke-width="2" x1="311.358" y1="265.157" x2="312.115" y2="269.882"/>
<line fill="none" stroke="#000000" x1="326.407" y1="265.163" x2="311.737" y2="267.519"/>
<line fill="none" stroke="#000000" stroke-width="2" x1="386.245" y1="164.773" x2="386.219" y2="169.559"/>
<line fill="none" stroke="#000000" x1="410.16" y1="167.299" x2="386.233" y2="167.165"/>
<line fill="none" stroke="#000000" stroke-width="2" x1="284.234" y1="68.524" x2="289.019" y2="68.524"/>
<line fill="none" stroke="#000000" x1="286.626" y1="36.818" x2="286.626" y2="68.524"/>
<line fill="none" stroke="#000000" stroke-width="2" x1="220.093" y1="286.036" x2="219.197" y2="281.335"/>
<line fill="none" stroke="#000000" x1="197.488" y1="287.905" x2="219.645" y2="283.685"/>
<line fill="none" stroke="#000000" stroke-width="2" x1="364.054" y1="376.366" x2="364.141" y2="381.151"/>
<line fill="none" stroke="#000000" x1="388.027" y1="378.329" x2="364.097" y2="378.761"/>
</svg>
