<?xml version="1.0" encoding="utf-8"?>
<!-- Generator: Adobe Illustrator 16.0.0, SVG Export Plug-In . SVG Version: 6.00 Build 0)  -->
<!DOCTYPE svg PUBLIC "-//W3C//DTD SVG 1.1//EN" "http://www.w3.org/Graphics/SVG/1.1/DTD/svg11.dtd">
<svg version="1.1" id="图层_1" xmlns="http://www.w3.org/2000/svg" xmlns:xlink="http://www.w3.org/1999/xlink" x="0px" y="0px"
	 width="754px" height="351.333px" viewBox="0 0 754 351.333" enable-background="new 0 0 754 351.333" xml:space="preserve">
<rect x="354.171" y="6.6" fill="#FFFFFF" fill-opacity="0.5" stroke="#000000" width="294.691" height="38.257"/>
<text transform="matrix(1 0 0 1 464.3127 54.4224)" font-family="'ArialMT'" font-size="8.3685">MYC/MAX Complex</text>
<path fill="#FFFFFF" fill-opacity="0.5" stroke="#000000" d="M361.043,9.889h82.489c1.979,0,3.588,1.607,3.588,3.587v23.909
	c0,1.981-1.605,3.588-3.588,3.588h-82.489c-1.979,0-3.587-1.606-3.587-3.588V13.476C357.458,11.497,359.063,9.889,361.043,9.889z"/>
<text transform="matrix(1 0 0 1 392.9885 19.4526)" font-family="'ArialMT'" font-size="8.3685">MYC</text>
<rect x="360.448" y="23.04" fill="#FFF8F8" stroke="#000000" width="83.686" height="14.945"/>
<text transform="matrix(1 0 0 1 390.3342 33.3013)" font-family="'ArialMT'" font-size="8.3685">&lt;0.5%</text>
<path fill="#FFFFFF" fill-opacity="0.5" stroke="#000000" d="M559.497,10.487h82.488c1.981,0,3.586,1.605,3.586,3.588v23.91
	c0,1.979-1.604,3.586-3.586,3.586h-82.488c-1.98,0-3.589-1.604-3.589-3.586v-23.91C555.91,12.092,557.516,10.487,559.497,10.487z"/>
<text transform="matrix(1 0 0 1 589.1174 20.0513)" font-family="'ArialMT'" font-size="8.3685">MYCL</text>
<rect x="558.899" y="23.637" fill="#FFF8F8" stroke="#000000" width="83.687" height="14.944"/>
<text transform="matrix(1 0 0 1 588.7874 33.8989)" font-family="'ArialMT'" font-size="8.3685">&lt;0.5%</text>
<path fill="#FFFFFF" fill-opacity="0.5" stroke="#000000" d="M459.674,10.487h82.486c1.981,0,3.591,1.605,3.591,3.588v23.91
	c0,1.979-1.606,3.586-3.591,3.586h-82.486c-1.98,0-3.588-1.604-3.588-3.586v-23.91C456.086,12.092,457.691,10.487,459.674,10.487z"
	/>
<text transform="matrix(1 0 0 1 488.5979 20.0513)" font-family="'ArialMT'" font-size="8.3685">MYCN</text>
<rect x="459.074" y="23.637" fill="#FFF8F8" stroke="#000000" width="83.685" height="14.944"/>
<text transform="matrix(1 0 0 1 488.9612 33.8989)" font-family="'ArialMT'" font-size="8.3685">&lt;0.5%</text>
<rect x="257.334" y="164.409" fill="#FFFFFF" fill-opacity="0.5" stroke="#000000" width="493.146" height="37.659"/>
<text transform="matrix(1 0 0 1 466.7053 211.6313)" font-family="'ArialMT'" font-size="8.3685">MAX/MXD Complex</text>
<path fill="#FFFFFF" fill-opacity="0.5" stroke="#000000" d="M264.209,167.695h82.49c1.979,0,3.586,1.606,3.586,3.588v23.911
	c0,1.979-1.605,3.586-3.586,3.586h-82.49c-1.981,0-3.588-1.605-3.588-3.586v-23.913
	C260.621,169.301,262.225,167.695,264.209,167.695z"/>
<text transform="matrix(1 0 0 1 293.8264 186.2593)" font-family="'ArialMT'" font-size="8.3685">MXD1</text>
<path fill="#FFFFFF" fill-opacity="0.5" stroke="#000000" d="M465.65,167.695h82.487c1.98,0,3.59,1.606,3.59,3.588v23.911
	c0,1.979-1.606,3.586-3.59,3.586H465.65c-1.98,0-3.588-1.605-3.588-3.586v-23.913C462.064,169.301,463.669,167.695,465.65,167.695z"
	/>
<text transform="matrix(1 0 0 1 495.2698 186.2593)" font-family="'ArialMT'" font-size="8.3685">MXD4</text>
<path fill="#FFFFFF" fill-opacity="0.5" stroke="#000000" d="M563.084,167.695h82.487c1.979,0,3.588,1.606,3.588,3.588v23.911
	c0,1.979-1.605,3.586-3.588,3.586h-82.487c-1.979,0-3.587-1.605-3.587-3.586v-23.913
	C559.497,169.301,561.104,167.695,563.084,167.695z"/>
<text transform="matrix(1 0 0 1 594.5608 186.2593)" font-family="'ArialMT'" font-size="8.3685">MXI1</text>
<path fill="#FFFFFF" fill-opacity="0.5" stroke="#000000" d="M367.022,167.695h82.488c1.98,0,3.588,1.606,3.588,3.588v23.911
	c0,1.979-1.604,3.586-3.588,3.586h-82.488c-1.98,0-3.588-1.605-3.588-3.586v-23.913
	C363.434,169.301,365.041,167.695,367.022,167.695z"/>
<text transform="matrix(1 0 0 1 396.6389 186.2593)" font-family="'ArialMT'" font-size="8.3685">MXD3</text>
<path fill="#FFFFFF" fill-opacity="0.5" stroke="#000000" d="M661.115,167.695h82.488c1.981,0,3.588,1.606,3.588,3.588v23.911
	c0,1.979-1.604,3.586-3.588,3.586h-82.488c-1.979,0-3.588-1.605-3.588-3.586v-23.913
	C657.528,169.301,659.135,167.695,661.115,167.695z"/>
<text transform="matrix(1 0 0 1 693.2971 186.2593)" font-family="'ArialMT'" font-size="8.3685">MNT</text>
<rect x="403.187" y="232.549" fill="#FFFFFF" fill-opacity="0.5" stroke="#000000" width="201.44" height="102.218"/>
<text transform="matrix(1 0 0 1 460.428 344.3325)" font-family="'ArialMT'" font-size="8.3685">MLX/MONDO Complex</text>
<path fill="#FFFFFF" fill-opacity="0.5" stroke="#000000" d="M515.264,300.399h82.49c1.979,0,3.586,1.604,3.586,3.586v23.911
	c0,1.981-1.605,3.588-3.586,3.588h-82.49c-1.979,0-3.587-1.606-3.587-3.588v-23.911
	C511.677,302.002,513.281,300.399,515.264,300.399z"/>
<text transform="matrix(1 0 0 1 541.6233 318.9614)" font-family="'ArialMT'" font-size="8.3685">MLXIPL</text>
<path fill="#FFFFFF" fill-opacity="0.5" stroke="#000000" d="M410.059,299.201h82.489c1.979,0,3.586,1.604,3.586,3.586V326.7
	c0,1.979-1.605,3.586-3.586,3.586h-82.489c-1.979,0-3.589-1.605-3.589-3.586v-23.913
	C406.474,300.807,408.08,299.201,410.059,299.201z"/>
<text transform="matrix(1 0 0 1 438.7463 317.7651)" font-family="'ArialMT'" font-size="8.3685">MLXIP</text>
<path fill="#FFFFFF" fill-opacity="0.5" stroke="#000000" d="M466.846,235.84h82.49c1.979,0,3.588,1.604,3.588,3.586v23.912
	c0,1.979-1.607,3.586-3.588,3.586h-82.49c-1.979,0-3.587-1.604-3.587-3.586v-23.912C463.259,237.444,464.865,235.84,466.846,235.84z
	"/>
<text transform="matrix(1 0 0 1 499.4866 254.4028)" font-family="'ArialMT'" font-size="8.3685">MLX</text>
<rect x="372.699" y="89.092" fill="#FFFFFF" fill-opacity="0.5" stroke="#000000" width="237.309" height="37.657"/>
<text transform="matrix(1 0 0 1 454.1506 136.3149)" font-family="'ArialMT'" font-size="8.3685">MAX/MGA Complex</text>
<path fill="#FFFFFF" fill-opacity="0.5" stroke="#000000" d="M520.643,92.38h82.49c1.979,0,3.585,1.605,3.585,3.588v23.91
	c0,1.979-1.604,3.586-3.585,3.586h-82.49c-1.979,0-3.586-1.606-3.586-3.586V95.965C517.058,93.986,518.661,92.38,520.643,92.38z"/>
<text transform="matrix(1 0 0 1 552.3577 110.9438)" font-family="'ArialMT'" font-size="8.3685">MGA</text>
<path fill="#FFFFFF" fill-opacity="0.5" stroke="#000000" d="M379.575,92.38h82.488c1.98,0,3.588,1.605,3.588,3.588v23.91
	c0,1.979-1.604,3.586-3.588,3.586h-82.488c-1.981,0-3.588-1.606-3.588-3.586V95.965C375.988,93.986,377.593,92.38,379.575,92.38z"/>
<text transform="matrix(1 0 0 1 411.7502 101.9438)" font-family="'ArialMT'" font-size="8.3685">MAX</text>
<rect x="378.974" y="105.529" fill="#FFF8F8" stroke="#000000" width="83.688" height="14.944"/>
<text transform="matrix(1 0 0 1 408.8635 115.7896)" font-family="'ArialMT'" font-size="8.3685">&lt;0.5%</text>
<rect x="0" y="174.27" fill="#FFFFFF" fill-opacity="0" width="147.047" height="14.349"/>
<text transform="matrix(1 0 0 1 8.1702 184.4321)" font-family="'ArialMT'" font-size="8.3685">Cell growth, proliferation, apoptosis</text>
<line fill="none" stroke="#000000" x1="482.734" y1="44.857" x2="436.076" y2="92.38"/>
<line fill="none" stroke="#000000" x1="544.853" y1="300.399" x2="519.747" y2="266.922"/>
<line fill="none" stroke="#000000" x1="465.65" y1="107.921" x2="517.058" y2="107.921"/>
<line fill="none" stroke="#000000" stroke-width="2" x1="115.052" y1="171.708" x2="115.88" y2="176.418"/>
<line fill="none" stroke="#000000" x1="384.349" y1="126.75" x2="115.467" y2="174.062"/>
<polygon points="96.916,170.389 98.553,174.883 93.24,174.27 "/>
<line fill="none" stroke="#000000" x1="448.938" y1="44.857" x2="97.734" y2="172.637"/>
<line fill="none" stroke="#000000" x1="503.905" y1="202.066" x2="503.905" y2="232.549"/>
<polygon points="108.932,187.395 107.827,192.049 103.726,188.616 "/>
<line fill="none" stroke="#000000" x1="403.187" y1="259.74" x2="108.38" y2="189.721"/>
<line fill="none" stroke="#000000" x1="465.233" y1="299.201" x2="494.161" y2="266.922"/>
<line fill="none" stroke="#000000" stroke-width="2" x1="148.254" y1="179.364" x2="148.233" y2="184.147"/>
<line fill="none" stroke="#000000" x1="257.334" y1="182.209" x2="148.243" y2="181.756"/>
<line fill="none" stroke="#000000" x1="437.964" y1="123.463" x2="483.134" y2="164.409"/>
</svg>
