<?xml version="1.0" encoding="utf-8"?>
<!-- Generator: Adobe Illustrator 16.0.0, SVG Export Plug-In . SVG Version: 6.00 Build 0)  -->
<!DOCTYPE svg PUBLIC "-//W3C//DTD SVG 1.1//EN" "http://www.w3.org/Graphics/SVG/1.1/DTD/svg11.dtd">
<svg version="1.1" id="图层_1" xmlns="http://www.w3.org/2000/svg" xmlns:xlink="http://www.w3.org/1999/xlink" x="0px" y="0px"
	 width="585.619px" height="383.803px" viewBox="0 0 585.619 383.803" enable-background="new 0 0 585.619 383.803"
	 xml:space="preserve">
<rect x="252.949" y="365.863" fill="#FFFFFF" fill-opacity="0" width="53.778" height="14.342"/>
<text transform="matrix(1 0 0 1 259.3015 376.0208)" font-family="'ArialMT'" font-size="8.3656">Translation</text>
<path fill="#FFFFFF" fill-opacity="0.5" stroke="#000000" d="M13.334,191.979h82.461c1.979,0,3.586,1.605,3.586,3.586v23.901
	c0,1.979-1.605,3.585-3.586,3.585H13.334c-1.979,0-3.584-1.604-3.584-3.585v-23.901C9.75,193.584,11.355,191.979,13.334,191.979z"/>
<text transform="matrix(1 0 0 1 39.0681 201.5403)" font-family="'ArialMT'" font-size="8.3656">PTPN11</text>
<rect x="12.737" y="205.125" fill="#FFF8F8" stroke="#000000" width="83.655" height="14.938"/>
<text transform="matrix(1 0 0 1 42.614 215.3821)" font-family="'ArialMT'" font-size="8.3656">&lt;0.5%</text>
<rect x="197.678" y="188.693" fill="#FFFFFF" fill-opacity="0.5" stroke="#CCCCCC" stroke-width="2" width="381.829" height="37.646"/>
<text transform="matrix(1 0 0 1 379.9915 235.8977)" font-family="'ArialMT'" font-size="8.3656">RAS</text>
<path fill="#FFFFFF" fill-opacity="0.5" stroke="#000000" d="M394.567,191.979h82.461c1.98,0,3.585,1.605,3.585,3.586v23.901
	c0,1.979-1.604,3.585-3.585,3.585h-82.461c-1.979,0-3.586-1.604-3.586-3.585v-23.901
	C390.981,193.584,392.587,191.979,394.567,191.979z"/>
<text transform="matrix(1 0 0 1 424.175 201.5403)" font-family="'ArialMT'" font-size="8.3656">NRAS</text>
<rect x="393.97" y="205.125" fill="#FFF7F7" stroke="#000000" width="83.656" height="14.938"/>
<text transform="matrix(1 0 0 1 426.2375 215.3821)" font-family="'ArialMT'" font-size="8.3656">0.5%</text>
<path fill="#FFFFFF" fill-opacity="0.5" stroke="#000000" d="M298.961,191.979h82.461c1.979,0,3.584,1.605,3.584,3.586v23.901
	c0,1.979-1.604,3.585-3.584,3.585h-82.461c-1.98,0-3.586-1.604-3.586-3.585v-23.901C295.375,193.584,296.98,191.979,298.961,191.979
	z"/>
<text transform="matrix(1 0 0 1 328.5696 201.5403)" font-family="'ArialMT'" font-size="8.3656">HRAS</text>
<rect x="298.363" y="205.125" fill="#FFF8F8" stroke="#000000" width="83.655" height="14.938"/>
<text transform="matrix(1 0 0 1 328.2395 215.3821)" font-family="'ArialMT'" font-size="8.3656">&lt;0.5%</text>
<path fill="#FFFFFF" fill-opacity="0.5" stroke="#000000" d="M204.549,191.979h82.461c1.979,0,3.585,1.605,3.585,3.586v23.901
	c0,1.979-1.605,3.585-3.585,3.585h-82.461c-1.98,0-3.585-1.604-3.585-3.585v-23.901
	C200.964,193.584,202.568,191.979,204.549,191.979z"/>
<text transform="matrix(1 0 0 1 234.3884 201.5403)" font-family="'ArialMT'" font-size="8.3656">KRAS</text>
<rect x="203.951" y="205.125" fill="#FFAAAA" stroke="#000000" width="83.654" height="14.938"/>
<text transform="matrix(1 0 0 1 236.2175 215.3821)" font-family="'ArialMT'" font-size="8.3656">4.8%</text>
<path fill="#FFFFFF" fill-opacity="0.5" stroke="#000000" d="M490.175,191.979h82.461c1.979,0,3.584,1.605,3.584,3.586v23.901
	c0,1.979-1.604,3.585-3.584,3.585h-82.461c-1.98,0-3.586-1.604-3.586-3.585v-23.901
	C486.589,193.584,488.194,191.979,490.175,191.979z"/>
<text transform="matrix(1 0 0 1 522.3391 209.5403)" font-family="'ArialMT'" font-size="8.3656">RIT1</text>
<path fill="#FFFFFF" fill-opacity="0.5" stroke="#000000" d="M13.334,140.59h82.461c1.979,0,3.586,1.604,3.586,3.585v23.901
	c0,1.98-1.605,3.586-3.586,3.586H13.334c-1.979,0-3.584-1.604-3.584-3.586v-23.901C9.75,142.195,11.355,140.59,13.334,140.59z"/>
<text transform="matrix(1 0 0 1 46.4285 150.1506)" font-family="'ArialMT'" font-size="8.3656">CBL</text>
<rect x="12.737" y="153.736" fill="#FFF8F8" stroke="#000000" width="83.655" height="14.938"/>
<text transform="matrix(1 0 0 1 42.614 163.9934)" font-family="'ArialMT'" font-size="8.3656">&lt;0.5%</text>
<rect x="56.956" y="366.462" fill="#FFFFFF" fill-opacity="0" width="60.948" height="14.341"/>
<text transform="matrix(1 0 0 1 65.1121 376.6194)" font-family="'ArialMT'" font-size="8.3656">Proliferation</text>
<path fill="#FFFFFF" fill-opacity="0.5" stroke="#000000" d="M394.567,140.59h82.461c1.98,0,3.585,1.604,3.585,3.585v23.901
	c0,1.98-1.604,3.586-3.585,3.586h-82.461c-1.979,0-3.586-1.604-3.586-3.586v-23.901C390.981,142.195,392.587,140.59,394.567,140.59z
	"/>
<text transform="matrix(1 0 0 1 427.8958 150.1506)" font-family="'ArialMT'" font-size="8.3656">NF1</text>
<rect x="393.97" y="153.736" fill="#FFE7E7" stroke="#000000" width="83.656" height="14.938"/>
<text transform="matrix(1 0 0 1 426.2375 163.9934)" font-family="'ArialMT'" font-size="8.3656">1.0%</text>
<path fill="#FFFFFF" fill-opacity="0.5" stroke="#000000" d="M108.941,140.59h82.461c1.98,0,3.586,1.604,3.586,3.585v23.901
	c0,1.98-1.604,3.586-3.586,3.586h-82.461c-1.979,0-3.585-1.604-3.585-3.586v-23.901C105.356,142.195,106.962,140.59,108.941,140.59z
	"/>
<text transform="matrix(1 0 0 1 135.2976 150.1506)" font-family="'ArialMT'" font-size="8.3656">ERRFI1</text>
<rect x="108.344" y="153.736" fill="#FFF8F8" stroke="#000000" width="83.656" height="14.938"/>
<text transform="matrix(1 0 0 1 138.2195 163.9934)" font-family="'ArialMT'" font-size="8.3656">&lt;0.5%</text>
<path fill="#FFFFFF" fill-opacity="0.5" stroke="#000000" d="M79.064,289.379h82.461c1.98,0,3.585,1.604,3.585,3.585v23.901
	c0,1.979-1.604,3.585-3.585,3.585H79.064c-1.979,0-3.586-1.604-3.586-3.585v-23.901C75.479,290.984,77.084,289.379,79.064,289.379z"
	/>
<text transform="matrix(1 0 0 1 109.1375 298.9397)" font-family="'ArialMT'" font-size="8.3656">RAC1</text>
<rect x="78.467" y="302.526" fill="#FFF8F8" stroke="#000000" width="83.656" height="14.938"/>
<text transform="matrix(1 0 0 1 108.3445 312.7825)" font-family="'ArialMT'" font-size="8.3656">&lt;0.5%</text>
<rect x="292.088" y="286.092" fill="#FFFFFF" fill-opacity="0.5" stroke="#CCCCCC" stroke-width="2" width="191.812" height="37.646"/>
<text transform="matrix(1 0 0 1 378.9309 333.2961)" font-family="'ArialMT'" font-size="8.3656">MEK</text>
<path fill="#FFFFFF" fill-opacity="0.5" stroke="#000000" d="M394.567,289.379h82.461c1.98,0,3.585,1.604,3.585,3.585v23.901
	c0,1.979-1.604,3.585-3.585,3.585h-82.461c-1.979,0-3.586-1.604-3.586-3.585v-23.901
	C390.981,290.984,392.587,289.379,394.567,289.379z"/>
<text transform="matrix(1 0 0 1 419.2922 298.9397)" font-family="'ArialMT'" font-size="8.3656">MAP2K2</text>
<rect x="393.97" y="302.526" fill="#FFF8F8" stroke="#000000" width="83.656" height="14.938"/>
<text transform="matrix(1 0 0 1 423.8469 312.7825)" font-family="'ArialMT'" font-size="8.3656">&lt;0.5%</text>
<path fill="#FFFFFF" fill-opacity="0.5" stroke="#000000" d="M298.961,289.379h82.461c1.979,0,3.584,1.604,3.584,3.585v23.901
	c0,1.979-1.604,3.585-3.584,3.585h-82.461c-1.98,0-3.586-1.604-3.586-3.585v-23.901C295.375,290.984,296.98,289.379,298.961,289.379
	z"/>
<text transform="matrix(1 0 0 1 323.6848 298.9397)" font-family="'ArialMT'" font-size="8.3656">MAP2K1</text>
<rect x="298.363" y="302.526" fill="#FFF8F8" stroke="#000000" width="83.655" height="14.938"/>
<text transform="matrix(1 0 0 1 328.2395 312.7825)" font-family="'ArialMT'" font-size="8.3656">&lt;0.5%</text>
<path fill="#FFFFFF" fill-opacity="0.5" stroke="#000000" d="M180.05,289.379h82.461c1.979,0,3.585,1.604,3.585,3.585v23.901
	c0,1.979-1.605,3.585-3.585,3.585H180.05c-1.98,0-3.586-1.604-3.586-3.585v-23.901C176.464,290.984,178.069,289.379,180.05,289.379z
	"/>
<text transform="matrix(1 0 0 1 207.0984 298.9397)" font-family="'ArialMT'" font-size="8.3656">MAPK1</text>
<rect x="179.452" y="302.526" fill="#FFF8F8" stroke="#000000" width="83.655" height="14.938"/>
<text transform="matrix(1 0 0 1 209.3279 312.7825)" font-family="'ArialMT'" font-size="8.3656">&lt;0.5%</text>
<rect x="292.088" y="237.093" fill="#FFFFFF" fill-opacity="0.5" stroke="#CCCCCC" stroke-width="2" width="287.419" height="37.646"/>
<text transform="matrix(1 0 0 1 427.4329 284.2981)" font-family="'ArialMT'" font-size="8.3656">RAF</text>
<path fill="#FFFFFF" fill-opacity="0.5" stroke="#000000" d="M298.961,240.38h82.461c1.979,0,3.584,1.604,3.584,3.586v23.899
	c0,1.98-1.604,3.586-3.584,3.586h-82.461c-1.98,0-3.586-1.604-3.586-3.586v-23.899C295.375,241.985,296.98,240.38,298.961,240.38z"
	/>
<text transform="matrix(1 0 0 1 329.0364 249.9407)" font-family="'ArialMT'" font-size="8.3656">ARAF</text>
<rect x="298.363" y="253.526" fill="#FFF8F8" stroke="#000000" width="83.655" height="14.94"/>
<text transform="matrix(1 0 0 1 328.2395 263.7825)" font-family="'ArialMT'" font-size="8.3656">&lt;0.5%</text>
<path fill="#FFFFFF" fill-opacity="0.5" stroke="#000000" d="M490.175,240.38h82.461c1.979,0,3.584,1.604,3.584,3.586v23.899
	c0,1.98-1.604,3.586-3.584,3.586h-82.461c-1.98,0-3.586-1.604-3.586-3.586v-23.899C486.589,241.985,488.194,240.38,490.175,240.38z"
	/>
<text transform="matrix(1 0 0 1 520.7122 249.9407)" font-family="'ArialMT'" font-size="8.3656">RAF1</text>
<rect x="489.576" y="253.526" fill="#FFF8F8" stroke="#000000" width="83.655" height="14.94"/>
<text transform="matrix(1 0 0 1 519.4543 263.7825)" font-family="'ArialMT'" font-size="8.3656">&lt;0.5%</text>
<path fill="#FFFFFF" fill-opacity="0.5" stroke="#000000" d="M394.567,240.38h82.461c1.98,0,3.585,1.604,3.585,3.586v23.899
	c0,1.98-1.604,3.586-3.585,3.586h-82.461c-1.979,0-3.586-1.604-3.586-3.586v-23.899C390.981,241.985,392.587,240.38,394.567,240.38z
	"/>
<text transform="matrix(1 0 0 1 424.6418 249.9407)" font-family="'ArialMT'" font-size="8.3656">BRAF</text>
<rect x="393.97" y="253.526" fill="#FFE8E8" stroke="#000000" width="83.656" height="14.94"/>
<text transform="matrix(1 0 0 1 426.2375 263.7825)" font-family="'ArialMT'" font-size="8.3656">1.0%</text>
<path fill="#FFFFFF" fill-opacity="0.5" stroke="#000000" d="M489.576,140.59h82.461c1.979,0,3.584,1.604,3.584,3.585v23.901
	c0,1.98-1.604,3.586-3.584,3.586h-82.461c-1.979,0-3.586-1.604-3.586-3.586v-23.901C485.99,142.195,487.597,140.59,489.576,140.59z"
	/>
<text transform="matrix(1 0 0 1 517.0911 158.1506)" font-family="'ArialMT'" font-size="8.3656">RASA1</text>
<rect x="151.966" y="366.462" fill="#FFFFFF" fill-opacity="0" width="60.948" height="14.341"/>
<text transform="matrix(1 0 0 1 159.8933 376.6194)" font-family="'ArialMT'" font-size="8.3656">Cell survival</text>
<path fill="#FFFFFF" fill-opacity="0.5" stroke="#000000" d="M298.961,140.59h82.461c1.979,0,3.584,1.604,3.584,3.585v23.901
	c0,1.98-1.604,3.586-3.584,3.586h-82.461c-1.98,0-3.586-1.604-3.586-3.586v-23.901C295.375,142.195,296.98,140.59,298.961,140.59z"
	/>
<text transform="matrix(1 0 0 1 329.0305 158.1506)" font-family="'ArialMT'" font-size="8.3656">SOS1</text>
<rect x="6.463" y="5.247" fill="#FFFFFF" fill-opacity="0.5" stroke="#CCCCCC" stroke-width="2" width="573.044" height="112.338"/>
<text transform="matrix(1 0 0 1 282.6033 127.1448)" font-family="'ArialMT'" font-size="8.3656">RTKs</text>
<path fill="#FFFFFF" fill-opacity="0.5" stroke="#000000" d="M108.941,83.227h82.461c1.98,0,3.586,1.604,3.586,3.585v23.901
	c0,1.979-1.604,3.586-3.586,3.586h-82.461c-1.979,0-3.585-1.605-3.585-3.586V86.812C105.356,84.831,106.962,83.227,108.941,83.227z"
	/>
<text transform="matrix(1 0 0 1 138.781 92.7874)" font-family="'ArialMT'" font-size="8.3656">ROS1</text>
<rect x="108.344" y="96.372" fill="#FFF1F1" stroke="#000000" width="83.656" height="14.938"/>
<text transform="matrix(1 0 0 1 140.6111 106.6301)" font-family="'ArialMT'" font-size="8.3656">0.7%</text>
<path fill="#FFFFFF" fill-opacity="0.5" stroke="#000000" d="M394.567,46.179h82.461c1.98,0,3.585,1.604,3.585,3.585v23.902
	c0,1.979-1.604,3.585-3.585,3.585h-82.461c-1.979,0-3.586-1.605-3.586-3.585V49.764C390.981,47.782,392.587,46.179,394.567,46.179z"
	/>
<text transform="matrix(1 0 0 1 429.2903 55.7395)" font-family="'ArialMT'" font-size="8.3656">KIT</text>
<rect x="393.97" y="59.323" fill="#FFF5F5" stroke="#000000" width="83.656" height="14.938"/>
<text transform="matrix(1 0 0 1 426.2375 69.5813)" font-family="'ArialMT'" font-size="8.3656">0.6%</text>
<path fill="#FFFFFF" fill-opacity="0.5" stroke="#000000" d="M13.334,83.227h82.461c1.979,0,3.586,1.604,3.586,3.585v23.901
	c0,1.979-1.605,3.586-3.586,3.586H13.334c-1.979,0-3.584-1.605-3.584-3.586V86.812C9.75,84.831,11.355,83.227,13.334,83.227z"/>
<text transform="matrix(1 0 0 1 46.2 92.7874)" font-family="'ArialMT'" font-size="8.3656">RET</text>
<rect x="12.737" y="96.372" fill="#FFF8F8" stroke="#000000" width="83.655" height="14.938"/>
<text transform="matrix(1 0 0 1 42.614 106.6301)" font-family="'ArialMT'" font-size="8.3656">&lt;0.5%</text>
<path fill="#FFFFFF" fill-opacity="0.5" stroke="#000000" d="M298.961,83.227h82.461c1.979,0,3.584,1.604,3.584,3.585v23.901
	c0,1.979-1.604,3.586-3.584,3.586h-82.461c-1.98,0-3.586-1.605-3.586-3.586V86.812C295.375,84.831,296.98,83.227,298.961,83.227z"/>
<text transform="matrix(1 0 0 1 330.7375 92.7874)" font-family="'ArialMT'" font-size="8.3656">FLT3</text>
<rect x="298.363" y="96.372" fill="#FFF8F8" stroke="#000000" width="83.655" height="14.938"/>
<text transform="matrix(1 0 0 1 328.2395 106.6301)" font-family="'ArialMT'" font-size="8.3656">&lt;0.5%</text>
<path fill="#FFFFFF" fill-opacity="0.5" stroke="#000000" d="M490.175,83.227h82.461c1.979,0,3.584,1.604,3.584,3.585v23.901
	c0,1.979-1.604,3.586-3.584,3.586h-82.461c-1.98,0-3.586-1.605-3.586-3.586V86.812C486.589,84.831,488.194,83.227,490.175,83.227z"
	/>
<text transform="matrix(1 0 0 1 517.6926 92.7874)" font-family="'ArialMT'" font-size="8.3656">NTRK2</text>
<rect x="489.576" y="96.372" fill="#FFF8F8" stroke="#000000" width="83.655" height="14.938"/>
<text transform="matrix(1 0 0 1 519.4543 106.6301)" font-family="'ArialMT'" font-size="8.3656">&lt;0.5%</text>
<path fill="#FFFFFF" fill-opacity="0.5" stroke="#000000" d="M204.549,46.179h82.461c1.979,0,3.585,1.604,3.585,3.585v23.902
	c0,1.979-1.605,3.585-3.585,3.585h-82.461c-1.98,0-3.585-1.605-3.585-3.585V49.764C200.964,47.782,202.568,46.179,204.549,46.179z"
	/>
<text transform="matrix(1 0 0 1 232.0691 55.7395)" font-family="'ArialMT'" font-size="8.3656">FGFR3</text>
<rect x="203.951" y="59.323" fill="#FFF8F8" stroke="#000000" width="83.654" height="14.938"/>
<text transform="matrix(1 0 0 1 233.8269 69.5813)" font-family="'ArialMT'" font-size="8.3656">&lt;0.5%</text>
<path fill="#FFFFFF" fill-opacity="0.5" stroke="#000000" d="M394.567,8.532h82.461c1.98,0,3.585,1.605,3.585,3.585V36.02
	c0,1.979-1.604,3.585-3.585,3.585h-82.461c-1.979,0-3.586-1.604-3.586-3.585V12.117C390.981,10.139,392.587,8.532,394.567,8.532z"/>
<text transform="matrix(1 0 0 1 426.968 18.094)" font-family="'ArialMT'" font-size="8.3656">MET</text>
<rect x="393.97" y="21.68" fill="#FFF8F8" stroke="#000000" width="83.656" height="14.938"/>
<text transform="matrix(1 0 0 1 423.8469 31.9368)" font-family="'ArialMT'" font-size="8.3656">&lt;0.5%</text>
<path fill="#FFFFFF" fill-opacity="0.5" stroke="#000000" d="M13.334,46.179h82.461c1.979,0,3.586,1.604,3.586,3.585v23.902
	c0,1.979-1.605,3.585-3.586,3.585H13.334c-1.979,0-3.584-1.605-3.584-3.585V49.764C9.75,47.782,11.355,46.179,13.334,46.179z"/>
<text transform="matrix(1 0 0 1 40.8552 55.7395)" font-family="'ArialMT'" font-size="8.3656">FGFR1</text>
<rect x="12.737" y="59.323" fill="#FFF8F8" stroke="#000000" width="83.655" height="14.938"/>
<text transform="matrix(1 0 0 1 42.614 69.5813)" font-family="'ArialMT'" font-size="8.3656">&lt;0.5%</text>
<path fill="#FFFFFF" fill-opacity="0.5" stroke="#000000" d="M108.941,46.179h82.461c1.98,0,3.586,1.604,3.586,3.585v23.902
	c0,1.979-1.604,3.585-3.586,3.585h-82.461c-1.979,0-3.585-1.605-3.585-3.585V49.764C105.356,47.782,106.962,46.179,108.941,46.179z"
	/>
<text transform="matrix(1 0 0 1 136.4617 55.7395)" font-family="'ArialMT'" font-size="8.3656">FGFR2</text>
<rect x="108.344" y="59.323" fill="#FFF8F8" stroke="#000000" width="83.656" height="14.938"/>
<text transform="matrix(1 0 0 1 138.2195 69.5813)" font-family="'ArialMT'" font-size="8.3656">&lt;0.5%</text>
<path fill="#FFFFFF" fill-opacity="0.5" stroke="#000000" d="M108.941,8.532h82.461c1.98,0,3.586,1.605,3.586,3.585V36.02
	c0,1.979-1.604,3.585-3.586,3.585h-82.461c-1.979,0-3.585-1.604-3.585-3.585V12.117C105.356,10.139,106.962,8.532,108.941,8.532z"/>
<text transform="matrix(1 0 0 1 136.4558 18.094)" font-family="'ArialMT'" font-size="8.3656">ERBB2</text>
<rect x="108.344" y="21.68" fill="#FFE6E6" stroke="#000000" width="83.656" height="14.938"/>
<text transform="matrix(1 0 0 1 140.6111 31.9368)" font-family="'ArialMT'" font-size="8.3656">1.0%</text>
<path fill="#FFFFFF" fill-opacity="0.5" stroke="#000000" d="M298.961,8.532h82.461c1.979,0,3.584,1.605,3.584,3.585V36.02
	c0,1.979-1.604,3.585-3.584,3.585h-82.461c-1.98,0-3.586-1.604-3.586-3.585V12.117C295.375,10.139,296.98,8.532,298.961,8.532z"/>
<text transform="matrix(1 0 0 1 326.4739 18.094)" font-family="'ArialMT'" font-size="8.3656">ERBB4</text>
<rect x="298.363" y="21.68" fill="#FFE4E4" stroke="#000000" width="83.655" height="14.938"/>
<text transform="matrix(1 0 0 1 330.6301 31.9368)" font-family="'ArialMT'" font-size="8.3656">1.1%</text>
<path fill="#FFFFFF" fill-opacity="0.5" stroke="#000000" d="M13.334,8.532h82.461c1.979,0,3.586,1.605,3.586,3.585V36.02
	c0,1.979-1.605,3.585-3.586,3.585H13.334c-1.979,0-3.584-1.604-3.584-3.585V12.117C9.75,10.139,11.355,8.532,13.334,8.532z"/>
<text transform="matrix(1 0 0 1 42.946 18.094)" font-family="'ArialMT'" font-size="8.3656">EGFR</text>
<rect x="12.737" y="21.68" fill="#FF9C9C" stroke="#000000" width="83.655" height="14.938"/>
<text transform="matrix(1 0 0 1 45.0046 31.9368)" font-family="'ArialMT'" font-size="8.3656">6.3%</text>
<path fill="#FFFFFF" fill-opacity="0.5" stroke="#000000" d="M298.961,46.179h82.461c1.979,0,3.584,1.604,3.584,3.585v23.902
	c0,1.979-1.604,3.585-3.584,3.585h-82.461c-1.98,0-3.586-1.605-3.586-3.585V49.764C295.375,47.782,296.98,46.179,298.961,46.179z"/>
<text transform="matrix(1 0 0 1 326.4817 55.7395)" font-family="'ArialMT'" font-size="8.3656">FGFR4</text>
<rect x="298.363" y="59.323" fill="#FFF8F8" stroke="#000000" width="83.655" height="14.938"/>
<text transform="matrix(1 0 0 1 328.2395 69.5813)" font-family="'ArialMT'" font-size="8.3656">&lt;0.5%</text>
<path fill="#FFFFFF" fill-opacity="0.5" stroke="#000000" d="M490.175,46.179h82.461c1.979,0,3.584,1.604,3.584,3.585v23.902
	c0,1.979-1.604,3.585-3.584,3.585h-82.461c-1.98,0-3.586-1.605-3.586-3.585V49.764C486.589,47.782,488.194,46.179,490.175,46.179z"
	/>
<text transform="matrix(1 0 0 1 519.0872 55.7395)" font-family="'ArialMT'" font-size="8.3656">IGF1R</text>
<rect x="489.576" y="59.323" fill="#FFF8F8" stroke="#000000" width="83.655" height="14.938"/>
<text transform="matrix(1 0 0 1 519.4543 69.5813)" font-family="'ArialMT'" font-size="8.3656">&lt;0.5%</text>
<path fill="#FFFFFF" fill-opacity="0.5" stroke="#000000" d="M204.549,8.532h82.461c1.979,0,3.585,1.605,3.585,3.585V36.02
	c0,1.979-1.605,3.585-3.585,3.585h-82.461c-1.98,0-3.585-1.604-3.585-3.585V12.117C200.964,10.139,202.568,8.532,204.549,8.532z"/>
<text transform="matrix(1 0 0 1 232.0623 18.094)" font-family="'ArialMT'" font-size="8.3656">ERBB3</text>
<rect x="203.951" y="21.68" fill="#FFF8F8" stroke="#000000" width="83.654" height="14.938"/>
<text transform="matrix(1 0 0 1 233.8269 31.9368)" font-family="'ArialMT'" font-size="8.3656">&lt;0.5%</text>
<path fill="#FFFFFF" fill-opacity="0.5" stroke="#000000" d="M204.549,83.227h82.461c1.979,0,3.585,1.604,3.585,3.585v23.901
	c0,1.979-1.605,3.586-3.585,3.586h-82.461c-1.98,0-3.585-1.605-3.585-3.586V86.812C200.964,84.831,202.568,83.227,204.549,83.227z"
	/>
<text transform="matrix(1 0 0 1 237.8718 92.7874)" font-family="'ArialMT'" font-size="8.3656">ALK</text>
<rect x="203.951" y="96.372" fill="#FFEDED" stroke="#000000" width="83.654" height="14.938"/>
<text transform="matrix(1 0 0 1 236.2175 106.6301)" font-family="'ArialMT'" font-size="8.3656">0.8%</text>
<path fill="#FFFFFF" fill-opacity="0.5" stroke="#000000" d="M394.567,83.227h82.461c1.98,0,3.585,1.604,3.585,3.585v23.901
	c0,1.979-1.604,3.586-3.585,3.586h-82.461c-1.979,0-3.586-1.605-3.586-3.586V86.812C390.981,84.831,392.587,83.227,394.567,83.227z"
	/>
<text transform="matrix(1 0 0 1 422.0852 92.7874)" font-family="'ArialMT'" font-size="8.3656">NTRK1</text>
<rect x="393.97" y="96.372" fill="#FFF8F8" stroke="#000000" width="83.656" height="14.938"/>
<text transform="matrix(1 0 0 1 423.8469 106.6301)" font-family="'ArialMT'" font-size="8.3656">&lt;0.5%</text>
<path fill="#FFFFFF" fill-opacity="0.5" stroke="#000000" d="M490.175,8.532h82.461c1.979,0,3.584,1.605,3.584,3.585V36.02
	c0,1.979-1.604,3.585-3.584,3.585h-82.461c-1.98,0-3.586-1.604-3.586-3.585V12.117C486.589,10.139,488.194,8.532,490.175,8.532z"/>
<text transform="matrix(1 0 0 1 513.9739 18.094)" font-family="'ArialMT'" font-size="8.3656">PDGFRA</text>
<rect x="489.576" y="21.68" fill="#FFF8F8" stroke="#000000" width="83.655" height="14.938"/>
<text transform="matrix(1 0 0 1 521.843 31.9368)" font-family="'ArialMT'" font-size="8.3656">0.5%</text>
<line fill="none" stroke="#000000" stroke-width="2" x1="208.614" y1="120.237" x2="205.971" y2="116.253"/>
<line fill="none" stroke="#000000" x1="173.599" y1="140.59" x2="207.292" y2="118.244"/>
<line fill="none" stroke="#000000" stroke-width="2" x1="404.931" y1="186.195" x2="408.45" y2="189.429"/>
<line fill="none" stroke="#000000" x1="421.526" y1="171.661" x2="406.691" y2="187.813"/>
<line fill="none" stroke="#000000" stroke-width="2" x1="440.993" y1="186.038" x2="442.618" y2="190.533"/>
<line fill="none" stroke="#000000" x1="487.812" y1="171.661" x2="441.807" y2="188.286"/>
<polygon points="268.746,363.797 272.371,360.681 273.675,365.863 "/>
<line fill="none" stroke="#000000" x1="234.635" y1="320.45" x2="270.559" y2="362.239"/>
<polygon points="407.984,281.001 411.406,284.339 406.357,286.092 "/>
<line fill="none" stroke="#000000" x1="417.435" y1="274.739" x2="409.696" y2="282.671"/>
<polygon points="171.684,307.305 171.684,302.526 176.464,304.915 "/>
<line fill="none" stroke="#000000" x1="165.11" y1="304.915" x2="171.684" y2="304.915"/>
<polygon points="270.876,302.526 270.876,307.305 266.096,304.915 "/>
<line fill="none" stroke="#000000" x1="292.088" y1="304.915" x2="270.876" y2="304.915"/>
<polygon points="365.846,186.852 369.324,183.573 370.863,188.693 "/>
<line fill="none" stroke="#000000" x1="354.823" y1="171.661" x2="367.586" y2="185.213"/>
<line fill="none" stroke="#000000" stroke-width="2" x1="151.359" y1="120.247" x2="149.595" y2="115.805"/>
<line fill="none" stroke="#000000" x1="93.676" y1="140.59" x2="150.478" y2="118.026"/>
<polygon points="104.559,362.152 106.741,366.404 101.397,366.462 "/>
<line fill="none" stroke="#000000" x1="191.019" y1="320.45" x2="105.649" y2="364.278"/>
<polygon points="186.764,361.124 190.925,363.477 186.492,366.462 "/>
<line fill="none" stroke="#000000" x1="212.498" y1="320.45" x2="188.845" y2="362.299"/>
<polygon points="328.176,137.378 332.453,135.245 332.447,140.59 "/>
<line fill="none" stroke="#000000" x1="320.981" y1="117.585" x2="330.314" y2="136.313"/>
<polygon points="412.391,235.34 415.813,232.002 417.44,237.093 "/>
<line fill="none" stroke="#000000" x1="406.949" y1="226.338" x2="414.103" y2="233.671"/>
</svg>
