<?xml version="1.0" encoding="utf-8"?>
<!-- Generator: Adobe Illustrator 16.0.0, SVG Export Plug-In . SVG Version: 6.00 Build 0)  -->
<!DOCTYPE svg PUBLIC "-//W3C//DTD SVG 1.1//EN" "http://www.w3.org/Graphics/SVG/1.1/DTD/svg11.dtd">
<svg version="1.1" id="图层_1" xmlns="http://www.w3.org/2000/svg" xmlns:xlink="http://www.w3.org/1999/xlink" x="0px" y="0px"
	 width="480px" height="490.482px" viewBox="0 0 480 490.482" enable-background="new 0 0 480 490.482" xml:space="preserve">
<path fill="#FFFFFF" fill-opacity="0.5" stroke="#000000" d="M165.203,55.952h82.482c1.979,0,3.586,1.604,3.586,3.585v23.908
	c0,1.979-1.605,3.586-3.586,3.586h-82.482c-1.979,0-3.586-1.606-3.586-3.586V59.537C161.617,57.555,163.223,55.952,165.203,55.952z"
	/>
<text transform="matrix(1 0 0 1 191.5623 65.5144)" font-family="'ArialMT'" font-size="8.3676">PIK3CA</text>
<rect x="164.606" y="69.1" fill="#FFC5C5" stroke="#000000" width="83.677" height="14.941"/>
<text transform="matrix(1 0 0 1 196.8811 79.3621)" font-family="'ArialMT'" font-size="8.3676">2.5%</text>
<path fill="#FFFFFF" fill-opacity="0.5" stroke="#000000" d="M167.595,320.726h82.479c1.982,0,3.588,1.606,3.588,3.588v23.905
	c0,1.98-1.604,3.586-3.588,3.586h-82.479c-1.98,0-3.586-1.604-3.586-3.586v-23.905C164.009,322.333,165.614,320.726,167.595,320.726
	z"/>
<text transform="matrix(1 0 0 1 197.2107 338.2908)" font-family="'ArialMT'" font-size="8.3676">RHEB</text>
<rect x="283.247" y="10.826" fill="#FFFFFF" fill-opacity="0.5" stroke="#CCCCCC" stroke-width="2" width="96.227" height="109.975"/>
<text transform="matrix(1 0 0 1 319.2698 130.364)" font-family="'ArialMT'" font-size="8.3676">PIK3R</text>
<path fill="#FFFFFF" fill-opacity="0.5" stroke="#000000" d="M290.12,50.572h82.481c1.979,0,3.584,1.604,3.584,3.586v23.908
	c0,1.979-1.605,3.586-3.584,3.586H290.12c-1.98,0-3.586-1.606-3.586-3.586V54.158C286.535,52.177,288.141,50.572,290.12,50.572z"/>
<text transform="matrix(1 0 0 1 316.9417 60.1355)" font-family="'ArialMT'" font-size="8.3676">PIK3R2</text>
<rect x="289.524" y="63.72" fill="#FFF8F8" stroke="#000000" width="83.675" height="14.941"/>
<text transform="matrix(1 0 0 1 319.4065 73.9832)" font-family="'ArialMT'" font-size="8.3676">&lt;0.5%</text>
<path fill="#FFFFFF" fill-opacity="0.5" stroke="#000000" d="M290.12,86.433h82.481c1.979,0,3.584,1.604,3.584,3.586v23.906
	c0,1.98-1.605,3.587-3.584,3.587H290.12c-1.98,0-3.586-1.605-3.586-3.587V90.019C286.535,88.039,288.141,86.433,290.12,86.433z"/>
<text transform="matrix(1 0 0 1 316.9417 103.9968)" font-family="'ArialMT'" font-size="8.3676">PIK3R3</text>
<path fill="#FFFFFF" fill-opacity="0.5" stroke="#000000" d="M290.12,14.113h82.481c1.979,0,3.584,1.604,3.584,3.586v23.908
	c0,1.979-1.605,3.585-3.584,3.585H290.12c-1.98,0-3.586-1.604-3.586-3.585V17.699C286.535,15.718,288.141,14.113,290.12,14.113z"/>
<text transform="matrix(1 0 0 1 316.9417 23.6765)" font-family="'ArialMT'" font-size="8.3676">PIK3R1</text>
<rect x="289.524" y="27.261" fill="#FFF8F8" stroke="#000000" width="83.675" height="14.942"/>
<text transform="matrix(1 0 0 1 319.4065 37.5222)" font-family="'ArialMT'" font-size="8.3676">&lt;0.5%</text>
<rect x="63.895" y="142.915" fill="#FFFFFF" fill-opacity="0.5" stroke="#CCCCCC" stroke-width="2" width="284.499" height="37.654"/>
<text transform="matrix(1 0 0 1 198.0085 190.1335)" font-family="'ArialMT'" font-size="8.3676">AKT</text>
<path fill="#FFFFFF" fill-opacity="0.5" stroke="#000000" d="M259.04,146.202h82.479c1.981,0,3.588,1.605,3.588,3.586v23.908
	c0,1.979-1.605,3.586-3.588,3.586H259.04c-1.979,0-3.586-1.606-3.586-3.586v-23.908C255.454,147.807,257.061,146.202,259.04,146.202
	z"/>
<text transform="matrix(1 0 0 1 289.8167 155.7664)" font-family="'ArialMT'" font-size="8.3676">AKT3</text>
<rect x="258.444" y="159.351" fill="#FFF8F8" stroke="#000000" width="83.677" height="14.941"/>
<text transform="matrix(1 0 0 1 288.3284 169.6121)" font-family="'ArialMT'" font-size="8.3676">&lt;0.5%</text>
<path fill="#FFFFFF" fill-opacity="0.5" stroke="#000000" d="M164.606,146.202h82.481c1.98,0,3.585,1.605,3.585,3.586v23.908
	c0,1.979-1.604,3.586-3.585,3.586h-82.481c-1.98,0-3.586-1.606-3.586-3.586v-23.908C161.02,147.807,162.625,146.202,164.606,146.202
	z"/>
<text transform="matrix(1 0 0 1 195.3826 155.7664)" font-family="'ArialMT'" font-size="8.3676">AKT2</text>
<rect x="164.009" y="159.351" fill="#FFF8F8" stroke="#000000" width="83.677" height="14.941"/>
<text transform="matrix(1 0 0 1 193.8923 169.6121)" font-family="'ArialMT'" font-size="8.3676">&lt;0.5%</text>
<path fill="#FFFFFF" fill-opacity="0.5" stroke="#000000" d="M70.769,146.202h82.479c1.98,0,3.587,1.605,3.587,3.586v23.908
	c0,1.979-1.605,3.586-3.587,3.586H70.769c-1.98,0-3.586-1.606-3.586-3.586v-23.908C67.183,147.807,68.788,146.202,70.769,146.202z"
	/>
<text transform="matrix(1 0 0 1 101.5457 155.7664)" font-family="'ArialMT'" font-size="8.3676">AKT1</text>
<rect x="70.172" y="159.351" fill="#FFF8F8" stroke="#000000" width="83.676" height="14.941"/>
<text transform="matrix(1 0 0 1 100.0559 169.6121)" font-family="'ArialMT'" font-size="8.3676">&lt;0.5%</text>
<rect x="54.332" y="383.782" fill="#FFFFFF" fill-opacity="0.5" stroke="#CCCCCC" stroke-width="2" width="96.229" height="37.654"/>
<text transform="matrix(1 0 0 1 84.8586 431.0007)" font-family="'ArialMT'" font-size="8.3676">mTORC2</text>
<path fill="#FFFFFF" fill-opacity="0.5" stroke="#000000" d="M61.206,387.071h82.48c1.979,0,3.586,1.604,3.586,3.584v23.91
	c0,1.979-1.605,3.584-3.586,3.584h-82.48c-1.98,0-3.587-1.605-3.587-3.584v-23.91C57.619,388.677,59.225,387.071,61.206,387.071z"/>
<text transform="matrix(1 0 0 1 86.4856 396.6335)" font-family="'ArialMT'" font-size="8.3676">RICTOR</text>
<rect x="60.609" y="400.218" fill="#FFF8F8" stroke="#000000" width="83.676" height="14.943"/>
<text transform="matrix(1 0 0 1 90.4934 410.4812)" font-family="'ArialMT'" font-size="8.3676">&lt;0.5%</text>
<rect x="158.929" y="221.81" fill="#FFFFFF" fill-opacity="0.5" stroke="#CCCCCC" stroke-width="2" width="96.228" height="69.929"/>
<text transform="matrix(1 0 0 1 198.6746 301.3015)" font-family="'ArialMT'" font-size="8.3676">TSC</text>
<path fill="#FFFFFF" fill-opacity="0.5" stroke="#000000" d="M165.802,225.095h82.481c1.979,0,3.586,1.606,3.586,3.588v23.907
	c0,1.98-1.606,3.586-3.586,3.586h-82.481c-1.98,0-3.586-1.604-3.586-3.586v-23.907C162.216,226.703,163.821,225.095,165.802,225.095
	z"/>
<text transform="matrix(1 0 0 1 196.3474 234.6609)" font-family="'ArialMT'" font-size="8.3676">TSC1</text>
<rect x="165.203" y="238.245" fill="#FFF8F8" stroke="#000000" width="83.678" height="14.943"/>
<text transform="matrix(1 0 0 1 195.0876 248.5066)" font-family="'ArialMT'" font-size="8.3676">&lt;0.5%</text>
<path fill="#FFFFFF" fill-opacity="0.5" stroke="#000000" d="M165.802,257.372h82.481c1.979,0,3.586,1.605,3.586,3.586v23.908
	c0,1.979-1.606,3.586-3.586,3.586h-82.481c-1.98,0-3.586-1.605-3.586-3.586v-23.908
	C162.216,258.978,163.821,257.372,165.802,257.372z"/>
<text transform="matrix(1 0 0 1 196.3474 266.9343)" font-family="'ArialMT'" font-size="8.3676">TSC2</text>
<rect x="165.203" y="270.521" fill="#FFF8F8" stroke="#000000" width="83.678" height="14.942"/>
<text transform="matrix(1 0 0 1 197.4788 280.783)" font-family="'ArialMT'" font-size="8.3676">0.5%</text>
<rect x="159.526" y="383.782" fill="#FFFFFF" fill-opacity="0.5" stroke="#CCCCCC" stroke-width="2" width="193.053" height="37.654"/>
<text transform="matrix(1 0 0 1 238.4626 431.0007)" font-family="'ArialMT'" font-size="8.3676">mTORC1</text>
<path fill="#FFFFFF" fill-opacity="0.5" stroke="#000000" d="M263.225,387.071h82.48c1.98,0,3.586,1.604,3.586,3.584v23.91
	c0,1.979-1.604,3.584-3.586,3.584h-82.48c-1.98,0-3.586-1.605-3.586-3.584v-23.91C259.639,388.677,261.243,387.071,263.225,387.071z
	"/>
<text transform="matrix(1 0 0 1 289.8967 396.6335)" font-family="'ArialMT'" font-size="8.3676">RPTOR</text>
<rect x="262.626" y="400.218" fill="#FFF8F8" stroke="#000000" width="83.677" height="14.943"/>
<text transform="matrix(1 0 0 1 292.512 410.4812)" font-family="'ArialMT'" font-size="8.3676">&lt;0.5%</text>
<path fill="#FFFFFF" fill-opacity="0.5" stroke="#000000" d="M166.4,387.071h82.481c1.979,0,3.586,1.604,3.586,3.584v23.91
	c0,1.979-1.607,3.584-3.586,3.584H166.4c-1.981,0-3.587-1.605-3.587-3.584v-23.91C162.813,388.677,164.418,387.071,166.4,387.071z"
	/>
<text transform="matrix(1 0 0 1 195.3992 396.6335)" font-family="'ArialMT'" font-size="8.3676">MTOR</text>
<rect x="165.802" y="400.218" fill="#FFF7F7" stroke="#000000" width="83.677" height="14.943"/>
<text transform="matrix(1 0 0 1 198.0769 410.4812)" font-family="'ArialMT'" font-size="8.3676">0.5%</text>
<path fill="#FFFFFF" fill-opacity="0.5" stroke="#000000" d="M389.935,145.604h82.479c1.982,0,3.586,1.604,3.586,3.586v23.908
	c0,1.979-1.604,3.586-3.586,3.586h-82.479c-1.98,0-3.586-1.606-3.586-3.586V149.19C386.349,147.21,387.953,145.604,389.935,145.604z
	"/>
<text transform="matrix(1 0 0 1 412.3381 155.1667)" font-family="'ArialMT'" font-size="8.3676">PPP2R1A</text>
<rect x="389.336" y="158.754" fill="#FFF8F8" stroke="#000000" width="83.676" height="14.942"/>
<text transform="matrix(1 0 0 1 419.2209 169.0144)" font-family="'ArialMT'" font-size="8.3676">&lt;0.5%</text>
<path fill="#FFFFFF" fill-opacity="0.5" stroke="#000000" d="M164.606,5.147h82.481c1.98,0,3.585,1.605,3.585,3.587v23.907
	c0,1.979-1.604,3.587-3.585,3.587h-82.481c-1.98,0-3.586-1.606-3.586-3.587V8.734C161.02,6.754,162.625,5.147,164.606,5.147z"/>
<text transform="matrix(1 0 0 1 194.6882 14.7117)" font-family="'ArialMT'" font-size="8.3676">PTEN</text>
<rect x="164.009" y="18.297" fill="#FFF0F0" stroke="#000000" width="83.677" height="14.942"/>
<text transform="matrix(1 0 0 1 196.283 28.5583)" font-family="'ArialMT'" font-size="8.3676">0.7%</text>
<rect x="183.135" y="473.138" fill="#FFFFFF" fill-opacity="0" width="53.792" height="14.344"/>
<text transform="matrix(1 0 0 1 189.1033 483.2976)" font-family="'ArialMT'" font-size="8.3676">Cell growth</text>
<path fill="#FFFFFF" fill-opacity="0.5" stroke="#000000" d="M31.919,57.146h82.48c1.981,0,3.587,1.604,3.587,3.587v23.905
	c0,1.981-1.604,3.588-3.587,3.588h-82.48c-1.98,0-3.586-1.605-3.586-3.588V60.733C28.333,58.752,29.938,57.146,31.919,57.146z"/>
<text transform="matrix(1 0 0 1 58.2781 66.7097)" font-family="'ArialMT'" font-size="8.3676">INPP4B</text>
<rect x="31.322" y="70.296" fill="#FFF8F8" stroke="#000000" width="83.676" height="14.941"/>
<text transform="matrix(1 0 0 1 61.2058 80.5574)" font-family="'ArialMT'" font-size="8.3676">&lt;0.5%</text>
<path fill="#FFFFFF" fill-opacity="0.5" stroke="#000000" d="M10.403,239.441h82.48c1.979,0,3.587,1.604,3.587,3.588v23.906
	c0,1.979-1.606,3.586-3.587,3.586h-82.48c-1.98,0-3.586-1.605-3.586-3.586v-23.906C6.817,241.046,8.422,239.441,10.403,239.441z"/>
<text transform="matrix(1 0 0 1 39.1628 249.0046)" font-family="'ArialMT'" font-size="8.3676">STK11</text>
<rect x="9.805" y="252.591" fill="#FFE9E9" stroke="#000000" width="83.677" height="14.941"/>
<text transform="matrix(1 0 0 1 42.0798 262.8503)" font-family="'ArialMT'" font-size="8.3676">0.9%</text>
<line fill="none" stroke="#000000" stroke-width="2" x1="204.31" y1="220.635" x2="209.092" y2="220.591"/>
<line fill="none" stroke="#000000" x1="206.323" y1="180.569" x2="206.7" y2="220.614"/>
<line fill="none" stroke="#000000" stroke-width="2" x1="206.068" y1="319.585" x2="210.848" y2="319.478"/>
<line fill="none" stroke="#000000" x1="207.83" y1="291.739" x2="208.457" y2="319.532"/>
<polygon points="214.658,467.804 218.772,470.241 214.278,473.138 "/>
<line fill="none" stroke="#000000" x1="244.901" y1="421.437" x2="216.716" y2="469.023"/>
<polygon points="154.119,258.553 154.175,253.773 158.929,256.219 "/>
<line fill="none" stroke="#000000" x1="96.471" y1="255.499" x2="154.147" y2="256.163"/>
<line fill="none" stroke="#000000" stroke-width="2" x1="203.857" y1="54.784" x2="208.639" y2="54.728"/>
<line fill="none" stroke="#000000" x1="206.029" y1="36.228" x2="206.246" y2="54.756"/>
<polygon points="203.833,138.126 208.615,138.141 206.207,142.915 "/>
<line fill="none" stroke="#000000" x1="206.393" y1="87.031" x2="206.223" y2="138.133"/>
<line fill="none" stroke="#000000" stroke-width="2" x1="252.356" y1="67.01" x2="252.574" y2="71.787"/>
<line fill="none" stroke="#000000" x1="283.247" y1="68" x2="252.465" y2="69.399"/>
<polygon points="237.932,381.275 241.827,378.501 242.653,383.782 "/>
<line fill="none" stroke="#000000" x1="219.895" y1="351.805" x2="239.881" y2="379.887"/>
<line fill="none" stroke="#000000" stroke-width="2" x1="160.444" y1="74.295" x2="160.401" y2="69.512"/>
<line fill="none" stroke="#000000" x1="117.987" y1="72.284" x2="160.423" y2="71.903"/>
<polygon points="60.807,274.262 56.285,275.819 56.99,270.521 "/>
<line fill="none" stroke="#000000" x1="97.099" y1="387.071" x2="58.547" y2="275.042"/>
<line fill="none" stroke="#000000" stroke-width="2" x1="349.582" y1="158.969" x2="349.596" y2="163.752"/>
<line fill="none" stroke="#000000" x1="386.349" y1="161.262" x2="349.588" y2="161.361"/>
</svg>
