<?xml version="1.0" encoding="utf-8"?>
<!-- Generator: Adobe Illustrator 16.0.0, SVG Export Plug-In . SVG Version: 6.00 Build 0)  -->
<!DOCTYPE svg PUBLIC "-//W3C//DTD SVG 1.1//EN" "http://www.w3.org/Graphics/SVG/1.1/DTD/svg11.dtd">
<svg version="1.1" id="图层_1" xmlns="http://www.w3.org/2000/svg" xmlns:xlink="http://www.w3.org/1999/xlink" x="0px" y="0px"
	 width="609.953px" height="434.666px" viewBox="0 0 609.953 434.666" enable-background="new 0 0 609.953 434.666"
	 xml:space="preserve">
<rect x="411.57" y="131.635" fill="#FFFFFF" fill-opacity="0.5" stroke="#CCCCCC" stroke-width="2" width="192.035" height="74.78"/>
<text transform="matrix(1 0 0 1 498.9749 215.9861)" font-family="'ArialMT'" font-size="8.3753">DKK</text>
<path fill="#FFFFFF" fill-opacity="0.5" stroke="#000000" d="M418.449,134.927h82.558c1.981,0,3.589,1.607,3.589,3.589v23.931
	c0,1.981-1.606,3.59-3.589,3.59h-82.558c-1.981,0-3.589-1.607-3.589-3.59v-23.931C414.861,136.535,416.467,134.927,418.449,134.927z
	"/>
<text transform="matrix(1 0 0 1 448.7874 152.4968)" font-family="'ArialMT'" font-size="8.3753">DKK1</text>
<path fill="#FFFFFF" fill-opacity="0.5" stroke="#000000" d="M514.167,134.927h82.557c1.982,0,3.589,1.607,3.589,3.589v23.931
	c0,1.981-1.605,3.59-3.589,3.59h-82.557c-1.981,0-3.59-1.607-3.59-3.59v-23.931C510.577,136.535,512.186,134.927,514.167,134.927z"
	/>
<text transform="matrix(1 0 0 1 544.5061 152.4968)" font-family="'ArialMT'" font-size="8.3753">DKK2</text>
<path fill="#FFFFFF" fill-opacity="0.5" stroke="#000000" d="M514.167,172.016h82.557c1.982,0,3.589,1.608,3.589,3.59v23.931
	c0,1.981-1.605,3.59-3.589,3.59h-82.557c-1.981,0-3.59-1.607-3.59-3.59v-23.931C510.577,173.625,512.186,172.016,514.167,172.016z"
	/>
<text transform="matrix(1 0 0 1 544.5061 189.5876)" font-family="'ArialMT'" font-size="8.3753">DKK4</text>
<path fill="#FFFFFF" fill-opacity="0.5" stroke="#000000" d="M418.449,172.016h82.558c1.981,0,3.589,1.608,3.589,3.59v23.931
	c0,1.981-1.606,3.59-3.589,3.59h-82.558c-1.981,0-3.589-1.607-3.589-3.59v-23.931C414.861,173.625,416.467,172.016,418.449,172.016z
	"/>
<text transform="matrix(1 0 0 1 448.7874 189.5876)" font-family="'ArialMT'" font-size="8.3753">DKK3</text>
<rect x="389.436" y="341.019" fill="#FFFFFF" fill-opacity="0.5" stroke="#CCCCCC" stroke-width="2" width="189.641" height="73.582"/>
<text transform="matrix(1 0 0 1 468.1917 424.1731)" font-family="'ArialMT'" font-size="8.3753">Groucho</text>
<path fill="#FFFFFF" fill-opacity="0.5" stroke="#000000" d="M396.315,344.308h82.558c1.981,0,3.589,1.607,3.589,3.59v23.932
	c0,1.98-1.606,3.588-3.589,3.588h-82.558c-1.981,0-3.589-1.605-3.589-3.588v-23.932
	C392.726,345.917,394.332,344.308,396.315,344.308z"/>
<text transform="matrix(1 0 0 1 427.5823 361.8782)" font-family="'ArialMT'" font-size="8.3753">TLE1</text>
<path fill="#FFFFFF" fill-opacity="0.5" stroke="#000000" d="M489.639,380.204h82.559c1.98,0,3.589,1.605,3.589,3.588v23.932
	c0,1.982-1.607,3.588-3.589,3.588h-82.559c-1.981,0-3.59-1.605-3.59-3.588v-23.932C486.049,381.81,487.657,380.204,489.639,380.204z
	"/>
<text transform="matrix(1 0 0 1 520.9084 397.7747)" font-family="'ArialMT'" font-size="8.3753">TLE4</text>
<path fill="#FFFFFF" fill-opacity="0.5" stroke="#000000" d="M489.639,344.308h82.559c1.98,0,3.589,1.607,3.589,3.59v23.932
	c0,1.98-1.607,3.588-3.589,3.588h-82.559c-1.981,0-3.59-1.605-3.59-3.588v-23.932C486.049,345.917,487.657,344.308,489.639,344.308z
	"/>
<text transform="matrix(1 0 0 1 520.9084 361.8782)" font-family="'ArialMT'" font-size="8.3753">TLE2</text>
<path fill="#FFFFFF" fill-opacity="0.5" stroke="#000000" d="M396.315,380.204h82.558c1.981,0,3.589,1.605,3.589,3.588v23.932
	c0,1.982-1.606,3.588-3.589,3.588h-82.558c-1.981,0-3.589-1.605-3.589-3.588v-23.932
	C392.726,381.81,394.332,380.204,396.315,380.204z"/>
<text transform="matrix(1 0 0 1 427.5823 397.7747)" font-family="'ArialMT'" font-size="8.3753">TLE3</text>
<path fill="#FFFFFF" fill-opacity="0.5" stroke="#000000" d="M112.75,282.093h82.558c1.981,0,3.589,1.609,3.589,3.59v23.93
	c0,1.982-1.606,3.59-3.589,3.59H112.75c-1.981,0-3.59-1.607-3.59-3.59v-23.93C109.16,283.702,110.769,282.093,112.75,282.093z"/>
<text transform="matrix(1 0 0 1 145.4177 291.6653)" font-family="'ArialMT'" font-size="8.3753">APC</text>
<rect x="112.153" y="295.255" fill="#FFB1B1" stroke="#000000" width="83.754" height="14.955"/>
<text transform="matrix(1 0 0 1 144.4568 305.5227)" font-family="'ArialMT'" font-size="8.3753">4.0%</text>
<path fill="#FFFFFF" fill-opacity="0.5" stroke="#000000" d="M246.756,6.905h82.557c1.981,0,3.589,1.605,3.589,3.589v23.93
	c0,1.982-1.606,3.59-3.589,3.59h-82.557c-1.982,0-3.59-1.606-3.59-3.59v-23.93C243.166,8.51,244.774,6.905,246.756,6.905z"/>
<text transform="matrix(1 0 0 1 278.031 24.4744)" font-family="'ArialMT'" font-size="8.3753">WIF1</text>
<rect x="197.402" y="132.235" fill="#FFFFFF" fill-opacity="0.5" stroke="#000000" width="189.042" height="71.189"/>
<text transform="matrix(1 0 0 1 236.8455 212.9958)" font-family="'ArialMT'" font-size="8.3753">WNT Dual Receptor Complex</text>
<path fill="#FFFFFF" fill-opacity="0.5" stroke="#000000" d="M297.008,135.525h82.556c1.983,0,3.59,1.606,3.59,3.59v23.929
	c0,1.983-1.605,3.59-3.59,3.59h-82.556c-1.982,0-3.59-1.605-3.59-3.59v-23.929C293.418,137.132,295.026,135.525,297.008,135.525z"/>
<text transform="matrix(1 0 0 1 327.8108 145.0945)" font-family="'ArialMT'" font-size="8.3753">LRP5</text>
<rect x="296.409" y="148.686" fill="#FFF8F8" stroke="#000000" width="83.753" height="14.955"/>
<text transform="matrix(1 0 0 1 326.3206 158.9548)" font-family="'ArialMT'" font-size="8.3753">&lt;0.5%</text>
<path fill="#FFFFFF" fill-opacity="0.5" stroke="#000000" d="M204.281,150.48h82.556c1.983,0,3.591,1.607,3.591,3.591v23.93
	c0,1.98-1.606,3.589-3.591,3.589h-82.556c-1.981,0-3.589-1.607-3.589-3.589v-23.93C200.693,152.088,202.299,150.48,204.281,150.48z"
	/>
<text transform="matrix(1 0 0 1 235.325 168.0525)" font-family="'ArialMT'" font-size="8.3753">FZDs</text>
<path fill="#FFFFFF" fill-opacity="0.5" stroke="#000000" d="M297.008,169.027h82.556c1.983,0,3.59,1.605,3.59,3.589v23.93
	c0,1.982-1.605,3.59-3.59,3.59h-82.556c-1.982,0-3.59-1.606-3.59-3.59v-23.93C293.418,170.633,295.026,169.027,297.008,169.027z"/>
<text transform="matrix(1 0 0 1 327.8108 178.5974)" font-family="'ArialMT'" font-size="8.3753">LRP6</text>
<rect x="296.409" y="182.187" fill="#FFF8F8" stroke="#000000" width="83.753" height="14.955"/>
<text transform="matrix(1 0 0 1 326.3206 192.4568)" font-family="'ArialMT'" font-size="8.3753">&lt;0.5%</text>
<rect x="58.909" y="377.81" fill="#FFFFFF" fill-opacity="0" width="78.968" height="14.357"/>
<text transform="matrix(1 0 0 1 68.1345 387.9797)" font-family="'ArialMT'" font-size="8.3753">Cell proliferation</text>
<rect x="173.472" y="345.208" fill="#FFFFFF" fill-opacity="0.5" stroke="#000000" width="190.838" height="72.982"/>
<text transform="matrix(1 0 0 1 251.906 427.761)" font-family="'ArialMT'" font-size="8.3753">TCF/LEF</text>
<path fill="#FFFFFF" fill-opacity="0.5" stroke="#000000" d="M180.352,383.792h82.557c1.982,0,3.589,1.609,3.589,3.592v23.928
	c0,1.982-1.605,3.592-3.589,3.592h-82.557c-1.982,0-3.59-1.609-3.59-3.592v-23.928C176.762,385.402,178.368,383.792,180.352,383.792
	z"/>
<text transform="matrix(1 0 0 1 206.5017 401.3625)" font-family="'ArialMT'" font-size="8.3753">TCF7L1</text>
<path fill="#FFFFFF" fill-opacity="0.5" stroke="#000000" d="M274.872,383.195h82.558c1.981,0,3.59,1.605,3.59,3.59v23.93
	c0,1.98-1.607,3.59-3.59,3.59h-82.558c-1.981,0-3.59-1.607-3.59-3.59v-23.93C271.283,384.802,272.891,383.195,274.872,383.195z"/>
<text transform="matrix(1 0 0 1 301.0232 392.7629)" font-family="'ArialMT'" font-size="8.3753">TCF7L2</text>
<rect x="274.275" y="396.355" fill="#FFF8F8" stroke="#000000" width="83.753" height="14.955"/>
<text transform="matrix(1 0 0 1 304.1853 406.6243)" font-family="'ArialMT'" font-size="8.3753">&lt;0.5%</text>
<path fill="#FFFFFF" fill-opacity="0.5" stroke="#000000" d="M228.809,348.497h82.557c1.982,0,3.59,1.605,3.59,3.59v23.93
	c0,1.982-1.606,3.59-3.59,3.59h-82.557c-1.982,0-3.589-1.607-3.589-3.59v-23.93C225.22,350.103,226.826,348.497,228.809,348.497z"/>
<text transform="matrix(1 0 0 1 259.6169 366.0657)" font-family="'ArialMT'" font-size="8.3753">TCF7</text>
<rect x="327.817" y="232.14" fill="#FFFFFF" fill-opacity="0.5" stroke="#CCCCCC" stroke-width="2" width="191.436" height="37.689"/>
<text transform="matrix(1 0 0 1 413.76 279.3997)" font-family="'ArialMT'" font-size="8.3753">AXIN</text>
<path fill="#FFFFFF" fill-opacity="0.5" stroke="#000000" d="M334.697,235.431h82.557c1.982,0,3.59,1.607,3.59,3.59v23.93
	c0,1.982-1.606,3.588-3.59,3.588h-82.557c-1.981,0-3.589-1.605-3.589-3.588v-23.93C331.108,237.038,332.714,235.431,334.697,235.431
	z"/>
<text transform="matrix(1 0 0 1 363.8713 244.9993)" font-family="'ArialMT'" font-size="8.3753">AXIN1</text>
<rect x="334.099" y="248.591" fill="#FFF8F8" stroke="#000000" width="83.753" height="14.957"/>
<text transform="matrix(1 0 0 1 364.0081 258.8586)" font-family="'ArialMT'" font-size="8.3753">&lt;0.5%</text>
<path fill="#FFFFFF" fill-opacity="0.5" stroke="#000000" d="M429.817,235.431h82.557c1.982,0,3.589,1.607,3.589,3.59v23.93
	c0,1.982-1.605,3.588-3.589,3.588h-82.557c-1.982,0-3.59-1.605-3.59-3.588v-23.93C426.227,237.038,427.833,235.431,429.817,235.431z
	"/>
<text transform="matrix(1 0 0 1 458.9905 244.9993)" font-family="'ArialMT'" font-size="8.3753">AXIN2</text>
<rect x="429.217" y="248.591" fill="#FFF8F8" stroke="#000000" width="83.753" height="14.957"/>
<text transform="matrix(1 0 0 1 459.1292 258.8586)" font-family="'ArialMT'" font-size="8.3753">&lt;0.5%</text>
<path fill="#FFFFFF" fill-opacity="0.5" stroke="#000000" d="M62.498,151.677h82.558c1.981,0,3.59,1.606,3.59,3.589v23.931
	c0,1.981-1.607,3.59-3.59,3.59H62.498c-1.981,0-3.59-1.607-3.59-3.59v-23.931C58.909,153.285,60.517,151.677,62.498,151.677z"/>
<text transform="matrix(1 0 0 1 90.5115 161.2478)" font-family="'ArialMT'" font-size="8.3753">RNF43</text>
<rect x="61.901" y="164.839" fill="#FFF8F8" stroke="#000000" width="83.754" height="14.955"/>
<text transform="matrix(1 0 0 1 91.8113 175.1052)" font-family="'ArialMT'" font-size="8.3753">&lt;0.5%</text>
<path fill="#FFFFFF" fill-opacity="0.5" stroke="#000000" d="M225.818,260.556h82.557c1.982,0,3.59,1.605,3.59,3.588v23.934
	c0,1.979-1.606,3.588-3.59,3.588h-82.557c-1.982,0-3.589-1.607-3.589-3.588v-23.934
	C222.229,262.163,223.834,260.556,225.818,260.556z"/>
<text transform="matrix(1 0 0 1 250.3425 270.1282)" font-family="'ArialMT'" font-size="8.3753">CTNNB1</text>
<rect x="225.22" y="273.718" fill="#FFE0E0" stroke="#000000" width="83.753" height="14.957"/>
<text transform="matrix(1 0 0 1 257.5242 283.9856)" font-family="'ArialMT'" font-size="8.3753">1.2%</text>
<rect x="7.161" y="34.721" fill="#FFFFFF" fill-opacity="0.5" stroke="#CCCCCC" stroke-width="2" width="186.65" height="105.29"/>
<text transform="matrix(1 0 0 1 89.3171 149.5828)" font-family="'ArialMT'" font-size="8.3753">SFRP</text>
<path fill="#FFFFFF" fill-opacity="0.5" stroke="#000000" d="M104.374,38.012h82.559c1.98,0,3.589,1.606,3.589,3.589v23.931
	c0,1.981-1.607,3.59-3.589,3.59h-82.559c-1.98,0-3.589-1.607-3.589-3.59V41.601C100.785,39.619,102.394,38.012,104.374,38.012z"/>
<text transform="matrix(1 0 0 1 132.155 55.5837)" font-family="'ArialMT'" font-size="8.3753">SFRP3</text>
<path fill="#FFFFFF" fill-opacity="0.5" stroke="#000000" d="M14.041,58.352h82.558c1.981,0,3.589,1.607,3.589,3.589v23.931
	c0,1.981-1.606,3.59-3.589,3.59H14.041c-1.981,0-3.59-1.607-3.59-3.59V61.941C10.451,59.96,12.06,58.352,14.041,58.352z"/>
<text transform="matrix(1 0 0 1 41.822 67.9236)" font-family="'ArialMT'" font-size="8.3753">SFRP1</text>
<rect x="13.444" y="71.513" fill="#FFF8F8" stroke="#000000" width="83.753" height="14.956"/>
<text transform="matrix(1 0 0 1 43.3542 81.781)" font-family="'ArialMT'" font-size="8.3753">&lt;0.5%</text>
<path fill="#FFFFFF" fill-opacity="0.5" stroke="#000000" d="M14.041,91.853h82.558c1.981,0,3.589,1.607,3.589,3.59v23.931
	c0,1.98-1.606,3.589-3.589,3.589H14.041c-1.981,0-3.59-1.607-3.59-3.589V95.442C10.451,93.461,12.06,91.853,14.041,91.853z"/>
<text transform="matrix(1 0 0 1 41.822 101.4236)" font-family="'ArialMT'" font-size="8.3753">SFRP2</text>
<rect x="13.444" y="105.014" fill="#FFF8F8" stroke="#000000" width="83.753" height="14.956"/>
<text transform="matrix(1 0 0 1 43.3542 115.283)" font-family="'ArialMT'" font-size="8.3753">&lt;0.5%</text>
<path fill="#FFFFFF" fill-opacity="0.5" stroke="#000000" d="M104.374,105.614h82.559c1.98,0,3.589,1.605,3.589,3.589v23.93
	c0,1.982-1.607,3.59-3.589,3.59h-82.559c-1.98,0-3.589-1.606-3.589-3.59v-23.93C100.785,107.219,102.394,105.614,104.374,105.614z"
	/>
<text transform="matrix(1 0 0 1 132.155 123.1833)" font-family="'ArialMT'" font-size="8.3753">SFRP5</text>
<path fill="#FFFFFF" fill-opacity="0.5" stroke="#000000" d="M104.374,72.113h82.559c1.98,0,3.589,1.605,3.589,3.589v23.929
	c0,1.983-1.607,3.59-3.589,3.59h-82.559c-1.98,0-3.589-1.605-3.589-3.59V75.702C100.785,73.719,102.394,72.113,104.374,72.113z"/>
<text transform="matrix(1 0 0 1 132.155 89.6824)" font-family="'ArialMT'" font-size="8.3753">SFRP4</text>
<path fill="#FFFFFF" fill-opacity="0.5" stroke="#000000" d="M246.756,70.915h82.557c1.981,0,3.589,1.606,3.589,3.59v23.93
	c0,1.981-1.606,3.59-3.589,3.59h-82.557c-1.982,0-3.59-1.607-3.59-3.59v-23.93C243.166,72.522,244.774,70.915,246.756,70.915z"/>
<text transform="matrix(1 0 0 1 264.1404 89.4587)" font-family="'ArialMT'" font-size="8.3753">WNT ligands</text>
<path fill="#FFFFFF" fill-opacity="0.5" stroke="#000000" d="M112.75,237.224h82.558c1.981,0,3.589,1.607,3.589,3.59v23.932
	c0,1.98-1.606,3.588-3.589,3.588H112.75c-1.981,0-3.59-1.605-3.59-3.588v-23.932C109.16,238.833,110.769,237.224,112.75,237.224z"/>
<text transform="matrix(1 0 0 1 140.0632 246.7942)" font-family="'ArialMT'" font-size="8.3753">GSK3B</text>
<rect x="112.153" y="250.388" fill="#FFF8F8" stroke="#000000" width="83.754" height="14.955"/>
<text transform="matrix(1 0 0 1 142.0632 260.6536)" font-family="'ArialMT'" font-size="8.3753">&lt;0.5%</text>
<path fill="#FFFFFF" fill-opacity="0.5" stroke="#000000" d="M334.697,280.896h82.557c1.982,0,3.59,1.607,3.59,3.59v23.93
	c0,1.98-1.606,3.59-3.59,3.59h-82.557c-1.981,0-3.589-1.607-3.589-3.59v-23.93C331.108,282.505,332.714,280.896,334.697,280.896z"/>
<text transform="matrix(1 0 0 1 361.5471 290.4661)" font-family="'ArialMT'" font-size="8.3753">AMER1</text>
<rect x="334.099" y="294.056" fill="#FFF2F2" stroke="#000000" width="83.753" height="14.957"/>
<text transform="matrix(1 0 0 1 366.4026 304.3274)" font-family="'ArialMT'" font-size="8.3753">0.7%</text>
<line fill="none" stroke="#000000" stroke-width="2" x1="241.982" y1="89.083" x2="241.957" y2="84.297"/>
<line fill="none" stroke="#000000" x1="193.813" y1="86.92" x2="241.97" y2="86.689"/>
<line fill="none" stroke="#000000" stroke-width="2" x1="313.578" y1="282.361" x2="312.7" y2="287.064"/>
<line fill="none" stroke="#000000" x1="331.108" y1="288.07" x2="313.14" y2="284.712"/>
<polygon points="182.097,232.679 184.608,236.753 179.278,237.224 "/>
<line fill="none" stroke="#000000" x1="234.144" y1="203.425" x2="183.352" y2="234.716"/>
<line fill="none" stroke="#000000" stroke-width="2" x1="196.198" y1="169.918" x2="196.211" y2="165.132"/>
<line fill="none" stroke="#000000" x1="148.646" y1="167.374" x2="196.204" y2="167.525"/>
<line fill="none" stroke="#000000" stroke-width="2" x1="220.573" y1="268.956" x2="221.539" y2="264.267"/>
<line fill="none" stroke="#000000" x1="198.897" y1="262.038" x2="221.057" y2="266.611"/>
<polygon points="142.615,381.743 142.707,386.527 137.876,384.226 "/>
<line fill="none" stroke="#000000" x1="173.472" y1="383.54" x2="142.661" y2="384.136"/>
<polygon points="287.603,127.569 292.384,127.34 290.222,132.235 "/>
<line fill="none" stroke="#000000" x1="288.778" y1="102.024" x2="289.992" y2="127.454"/>
<polygon points="388.385,231.605 390.942,227.56 393.708,232.14 "/>
<line fill="none" stroke="#000000" x1="348.261" y1="203.425" x2="389.662" y2="229.585"/>
<line fill="none" stroke="#000000" stroke-width="2" x1="312.766" y1="266.351" x2="313.525" y2="271.077"/>
<line fill="none" stroke="#000000" x1="327.817" y1="266.357" x2="313.146" y2="268.714"/>
<line fill="none" stroke="#000000" stroke-width="2" x1="387.654" y1="165.968" x2="387.626" y2="170.754"/>
<line fill="none" stroke="#000000" x1="411.57" y1="168.494" x2="387.641" y2="168.361"/>
<line fill="none" stroke="#000000" stroke-width="2" x1="285.642" y1="69.719" x2="290.427" y2="69.719"/>
<line fill="none" stroke="#000000" x1="288.034" y1="38.012" x2="288.034" y2="69.719"/>
<line fill="none" stroke="#000000" stroke-width="2" x1="221.5" y1="287.23" x2="220.606" y2="282.531"/>
<line fill="none" stroke="#000000" x1="198.897" y1="289.099" x2="221.053" y2="284.88"/>
<line fill="none" stroke="#000000" stroke-width="2" x1="365.461" y1="377.56" x2="365.549" y2="382.347"/>
<line fill="none" stroke="#000000" x1="389.436" y1="379.523" x2="365.505" y2="379.956"/>
</svg>
