<?xml version="1.0" encoding="utf-8"?>
<!-- Generator: Adobe Illustrator 16.0.0, SVG Export Plug-In . SVG Version: 6.00 Build 0)  -->
<!DOCTYPE svg PUBLIC "-//W3C//DTD SVG 1.1//EN" "http://www.w3.org/Graphics/SVG/1.1/DTD/svg11.dtd">
<svg version="1.1" id="图层_1" xmlns="http://www.w3.org/2000/svg" xmlns:xlink="http://www.w3.org/1999/xlink" x="0px" y="0px"
	 width="940.432px" height="246px" viewBox="0 0 940.432 246" enable-background="new 0 0 940.432 246" xml:space="preserve">
<path fill="#FFFFFF" fill-opacity="0.5" stroke="#000000" d="M747.48,119.145h82.461c1.979,0,3.586,1.605,3.586,3.586v23.901
	c0,1.979-1.604,3.587-3.586,3.587H747.48c-1.979,0-3.586-1.605-3.586-3.587v-23.901C743.894,120.75,745.498,119.145,747.48,119.145z
	"/>
<text transform="matrix(1 0 0 1 774.0647 136.7031)" font-family="'ArialMT'" font-size="8.3657">NRARP</text>
<path fill="#FFFFFF" fill-opacity="0.5" stroke="#000000" d="M430.178,8h82.463c1.979,0,3.584,1.605,3.584,3.586v23.901
	c0,1.98-1.604,3.586-3.584,3.586h-82.463c-1.979,0-3.585-1.604-3.585-3.586V11.586C426.594,9.606,428.199,8,430.178,8z"/>
<text transform="matrix(1 0 0 1 460.7151 25.5596)" font-family="'ArialMT'" font-size="8.3657">CUL1</text>
<rect x="509.952" y="66.262" fill="#FFFFFF" fill-opacity="0.5" stroke="#000000" width="194.804" height="79.474"/>
<path fill="#FFFFFF" fill-opacity="0.5" stroke="#000000" d="M516.823,111.377h82.463c1.979,0,3.586,1.604,3.586,3.585v23.901
	c0,1.98-1.604,3.586-3.586,3.586h-82.463c-1.979,0-3.584-1.605-3.584-3.586v-23.901C513.24,112.982,514.843,111.377,516.823,111.377
	z"/>
<text transform="matrix(1 0 0 1 540.8518 120.9355)" font-family="'ArialMT'" font-size="8.3657">CREBBP</text>
<rect x="516.225" y="124.523" fill="#FFEEEE" stroke="#000000" width="83.658" height="14.938"/>
<text transform="matrix(1 0 0 1 548.4915 134.7793)" font-family="'ArialMT'" font-size="8.3657">0.8%</text>
<path fill="#FFFFFF" fill-opacity="0.5" stroke="#000000" d="M615.421,69.548h82.461c1.979,0,3.586,1.605,3.586,3.586v23.901
	c0,1.98-1.604,3.586-3.586,3.586h-82.461c-1.979,0-3.586-1.605-3.586-3.586V73.134C611.835,71.154,613.441,69.548,615.421,69.548z"
	/>
<text transform="matrix(1 0 0 1 643.7092 87.1074)" font-family="'ArialMT'" font-size="8.3657">KAT2B</text>
<path fill="#FFFFFF" fill-opacity="0.5" stroke="#000000" d="M517.421,69.548h82.463c1.979,0,3.586,1.605,3.586,3.586v23.901
	c0,1.98-1.604,3.586-3.586,3.586h-82.463c-1.979,0-3.586-1.605-3.586-3.586V73.134C513.835,71.154,515.441,69.548,517.421,69.548z"
	/>
<text transform="matrix(1 0 0 1 544.2385 87.1074)" font-family="'ArialMT'" font-size="8.3657">MALM3</text>
<path fill="#FFFFFF" fill-opacity="0.5" stroke="#000000" d="M614.823,111.377h82.461c1.979,0,3.586,1.604,3.586,3.585v23.901
	c0,1.98-1.604,3.586-3.586,3.586h-82.461c-1.979,0-3.586-1.605-3.586-3.586v-23.901
	C611.238,112.982,612.843,111.377,614.823,111.377z"/>
<text transform="matrix(1 0 0 1 643.4944 120.9355)" font-family="'ArialMT'" font-size="8.3657">EP300</text>
<rect x="614.225" y="124.523" fill="#FFEAEA" stroke="#000000" width="83.656" height="14.938"/>
<text transform="matrix(1 0 0 1 646.4915 134.7793)" font-family="'ArialMT'" font-size="8.3657">0.9%</text>
<path fill="#FFFFFF" fill-opacity="0.5" stroke="#000000" d="M7.112,111.377h82.464c1.979,0,3.586,1.604,3.586,3.585v23.901
	c0,1.98-1.605,3.586-3.586,3.586H7.112c-1.979,0-3.585-1.605-3.585-3.586v-23.901C3.527,112.982,5.133,111.377,7.112,111.377z"/>
<text transform="matrix(1 0 0 1 34.3987 128.9346)" font-family="'ArialMT'" font-size="8.3657">CNTN6</text>
<path fill="#FFFFFF" fill-opacity="0.5" stroke="#000000" d="M747.48,37.878h82.461c1.979,0,3.586,1.605,3.586,3.585v23.903
	c0,1.98-1.604,3.585-3.586,3.585H747.48c-1.979,0-3.586-1.604-3.586-3.585V41.464C743.894,39.484,745.498,37.878,747.48,37.878z"/>
<text transform="matrix(1 0 0 1 775.926 55.4355)" font-family="'ArialMT'" font-size="8.3657">HES-X</text>
<path fill="#FFFFFF" fill-opacity="0.5" stroke="#000000" d="M146.342,168.145h82.462c1.98,0,3.586,1.604,3.586,3.586v23.902
	c0,1.979-1.604,3.584-3.586,3.584h-82.462c-1.979,0-3.585-1.605-3.585-3.584V171.73
	C142.757,169.748,144.362,168.145,146.342,168.145z"/>
<text transform="matrix(1 0 0 1 175.72 185.7031)" font-family="'ArialMT'" font-size="8.3657">DNER</text>
<rect x="378.79" y="94.646" fill="#FFFFFF" fill-opacity="0.5" stroke="#000000" width="89.634" height="31.073"/>
<text transform="matrix(1 0 0 1 388.3542 113.168)" font-family="'ArialMT'" font-size="8.3657">CLEAVED NOTCH</text>
<path fill="#FFFFFF" fill-opacity="0.5" stroke="#000000" d="M292.144,8h82.462c1.98,0,3.586,1.605,3.586,3.586v23.901
	c0,1.98-1.604,3.586-3.586,3.586h-82.462c-1.979,0-3.585-1.604-3.585-3.586V11.586C288.559,9.606,290.166,8,292.144,8z"/>
<text transform="matrix(1 0 0 1 318.9651 17.5596)" font-family="'ArialMT'" font-size="8.3657">FBXW7</text>
<rect x="291.547" y="21.147" fill="#FFE0E0" stroke="#000000" width="83.656" height="14.938"/>
<text transform="matrix(1 0 0 1 323.8132 31.4023)" font-family="'ArialMT'" font-size="8.3657">1.2%</text>
<rect x="456.77" y="164.857" fill="#FFFFFF" fill-opacity="0.5" stroke="#CCCCCC" stroke-width="2" width="289.216" height="74.098"/>
<path fill="#FFFFFF" fill-opacity="0.5" stroke="#000000" d="M464.837,204.596H547.3c1.979,0,3.584,1.604,3.584,3.584v23.902
	c0,1.98-1.604,3.584-3.584,3.584h-82.463c-1.979,0-3.584-1.604-3.584-3.584V208.18C461.253,206.199,462.858,204.596,464.837,204.596
	z"/>
<text transform="matrix(1 0 0 1 491.425 222.1543)" font-family="'ArialMT'" font-size="8.3657">NCOR2</text>
<path fill="#FFFFFF" fill-opacity="0.5" stroke="#000000" d="M559.848,168.145h82.461c1.979,0,3.587,1.604,3.587,3.586v23.902
	c0,1.979-1.604,3.584-3.587,3.584h-82.461c-1.979,0-3.586-1.605-3.586-3.584V171.73
	C556.262,169.748,557.868,168.145,559.848,168.145z"/>
<text transform="matrix(1 0 0 1 589.6858 177.7031)" font-family="'ArialMT'" font-size="8.3657">SPEN</text>
<rect x="559.25" y="181.289" fill="#FFF2F2" stroke="#000000" width="83.656" height="14.939"/>
<text transform="matrix(1 0 0 1 591.5168 191.5469)" font-family="'ArialMT'" font-size="8.3657">0.6%</text>
<path fill="#FFFFFF" fill-opacity="0.5" stroke="#000000" d="M656.652,168.145h82.463c1.979,0,3.584,1.604,3.584,3.586v23.902
	c0,1.979-1.604,3.584-3.584,3.584h-82.463c-1.979,0-3.586-1.605-3.586-3.584V171.73
	C653.066,169.748,654.671,168.145,656.652,168.145z"/>
<text transform="matrix(1 0 0 1 683.469 177.7031)" font-family="'ArialMT'" font-size="8.3657">KDM5A</text>
<rect x="656.053" y="181.289" fill="#FFF8F8" stroke="#000000" width="83.656" height="14.939"/>
<text transform="matrix(1 0 0 1 685.929 191.5469)" font-family="'ArialMT'" font-size="8.3657">&lt;0.5%</text>
<path fill="#FFFFFF" fill-opacity="0.5" stroke="#000000" d="M463.641,168.74h82.464c1.979,0,3.586,1.605,3.586,3.586v23.902
	c0,1.979-1.604,3.586-3.586,3.586h-82.464c-1.979,0-3.584-1.605-3.584-3.586v-23.902C460.057,170.348,461.663,168.74,463.641,168.74
	z"/>
<text transform="matrix(1 0 0 1 490.2288 178.3008)" font-family="'ArialMT'" font-size="8.3657">NCOR1</text>
<rect x="463.046" y="181.889" fill="#FFF8F8" stroke="#000000" width="83.655" height="14.938"/>
<text transform="matrix(1 0 0 1 492.9182 192.1445)" font-family="'ArialMT'" font-size="8.3657">&lt;0.5%</text>
<path fill="#FFFFFF" fill-opacity="0.5" stroke="#000000" d="M7.112,69.548h82.464c1.979,0,3.586,1.605,3.586,3.586v23.901
	c0,1.98-1.605,3.586-3.586,3.586H7.112c-1.979,0-3.585-1.605-3.585-3.586V73.134C3.527,71.154,5.133,69.548,7.112,69.548z"/>
<text transform="matrix(1 0 0 1 39.2776 87.1074)" font-family="'ArialMT'" font-size="8.3657">NOV</text>
<path fill="#FFFFFF" fill-opacity="0.5" stroke="#000000" d="M85.99,8h82.462c1.979,0,3.586,1.605,3.586,3.586v23.901
	c0,1.98-1.605,3.586-3.586,3.586H85.99c-1.98,0-3.586-1.604-3.586-3.586V11.586C82.405,9.606,84.009,8,85.99,8z"/>
<text transform="matrix(1 0 0 1 116.7581 25.5596)" font-family="'ArialMT'" font-size="8.3657">JAG2</text>
<rect x="139.47" y="66.262" fill="#FFFFFF" fill-opacity="0.5" stroke="#000000" width="198.983" height="79.474"/>
<path fill="#FFFFFF" fill-opacity="0.5" stroke="#000000" d="M146.342,111.377h82.462c1.98,0,3.586,1.604,3.586,3.585v23.901
	c0,1.98-1.604,3.586-3.586,3.586h-82.462c-1.979,0-3.585-1.605-3.585-3.586v-23.901
	C142.757,112.982,144.362,111.377,146.342,111.377z"/>
<text transform="matrix(1 0 0 1 170.3748 120.9355)" font-family="'ArialMT'" font-size="8.3657">NOTCH3</text>
<rect x="145.745" y="124.523" fill="#FFF1F1" stroke="#000000" width="83.655" height="14.938"/>
<text transform="matrix(1 0 0 1 178.011 134.7793)" font-family="'ArialMT'" font-size="8.3657">0.7%</text>
<path fill="#FFFFFF" fill-opacity="0.5" stroke="#000000" d="M146.342,69.548h82.462c1.98,0,3.586,1.605,3.586,3.586v23.901
	c0,1.98-1.604,3.586-3.586,3.586h-82.462c-1.979,0-3.585-1.605-3.585-3.586V73.134C142.757,71.154,144.362,69.548,146.342,69.548z"
	/>
<text transform="matrix(1 0 0 1 170.3748 79.1074)" font-family="'ArialMT'" font-size="8.3657">NOTCH1</text>
<rect x="145.745" y="82.695" fill="#FFDCDC" stroke="#000000" width="83.655" height="14.938"/>
<text transform="matrix(1 0 0 1 178.011 92.9492)" font-family="'ArialMT'" font-size="8.3657">1.4%</text>
<path fill="#FFFFFF" fill-opacity="0.5" stroke="#000000" d="M249.122,69.548h82.462c1.979,0,3.585,1.605,3.585,3.586v23.901
	c0,1.98-1.604,3.586-3.585,3.586h-82.462c-1.98,0-3.585-1.605-3.585-3.586V73.134C245.537,71.154,247.14,69.548,249.122,69.548z"/>
<text transform="matrix(1 0 0 1 273.1536 79.1074)" font-family="'ArialMT'" font-size="8.3657">NOTCH2</text>
<rect x="248.523" y="82.695" fill="#FFF8F8" stroke="#000000" width="83.657" height="14.938"/>
<text transform="matrix(1 0 0 1 280.7893 92.9492)" font-family="'ArialMT'" font-size="8.3657">0.5%</text>
<path fill="#FFFFFF" fill-opacity="0.5" stroke="#000000" d="M249.122,111.377h82.462c1.979,0,3.585,1.604,3.585,3.585v23.901
	c0,1.98-1.604,3.586-3.585,3.586h-82.462c-1.98,0-3.585-1.605-3.585-3.586v-23.901C245.537,112.982,247.14,111.377,249.122,111.377z
	"/>
<text transform="matrix(1 0 0 1 273.1536 128.9346)" font-family="'ArialMT'" font-size="8.3657">NOTCH4</text>
<path fill="#FFFFFF" fill-opacity="0.5" stroke="#000000" d="M747.48,77.914h82.461c1.979,0,3.586,1.604,3.586,3.585v23.903
	c0,1.979-1.604,3.585-3.586,3.585H747.48c-1.979,0-3.586-1.605-3.586-3.585V81.499C743.894,79.519,745.498,77.914,747.48,77.914z"/>
<text transform="matrix(1 0 0 1 776.3069 95.4727)" font-family="'ArialMT'" font-size="8.3657">HEY-X</text>
<path fill="#FFFFFF" fill-opacity="0.5" stroke="#000000" d="M249.122,168.145h82.462c1.979,0,3.585,1.604,3.585,3.586v23.902
	c0,1.979-1.604,3.584-3.585,3.584h-82.462c-1.98,0-3.585-1.605-3.585-3.584V171.73C245.537,169.748,247.14,168.145,249.122,168.145z
	"/>
<text transform="matrix(1 0 0 1 276.6335 185.7031)" font-family="'ArialMT'" font-size="8.3657">PSEN2</text>
<path fill="#FFFFFF" fill-opacity="0.5" stroke="#000000" d="M186.975,8h82.462c1.98,0,3.586,1.605,3.586,3.586v23.901
	c0,1.98-1.604,3.586-3.586,3.586h-82.462c-1.979,0-3.585-1.604-3.585-3.586V11.586C183.39,9.606,184.996,8,186.975,8z"/>
<text transform="matrix(1 0 0 1 211.0061 25.5596)" font-family="'ArialMT'" font-size="8.3657">ARRDC1</text>
<rect x="843.684" y="176.51" fill="#FFFFFF" fill-opacity="0" width="93.22" height="14.342"/>
<text transform="matrix(1 0 0 1 849.1389 186.666)" font-family="'ArialMT'" font-size="8.3657">Cell growth, apoptosis</text>
<line fill="none" stroke="#000000" stroke-width="2" x1="607.189" y1="147.076" x2="602.416" y2="146.781"/>
<line fill="none" stroke="#000000" x1="603.687" y1="164.857" x2="604.803" y2="146.93"/>
<polygon points="179.85,65.347 182.688,61.5 185.117,66.262 "/>
<line fill="none" stroke="#000000" x1="148.273" y1="39.074" x2="181.269" y2="63.423"/>
<polygon points="269.881,148.404 265.894,151.041 265.25,145.736 "/>
<line fill="none" stroke="#000000" x1="280.075" y1="168.145" x2="267.887" y2="149.723"/>
<line fill="none" stroke="#000000" stroke-width="2" x1="138.543" y1="119.421" x2="138.021" y2="114.669"/>
<line fill="none" stroke="#000000" x1="93.161" y1="121.996" x2="138.283" y2="117.045"/>
<line fill="none" stroke="#000000" stroke-width="2" x1="404.909" y1="95.542" x2="408.22" y2="92.094"/>
<line fill="none" stroke="#000000" x1="349.554" y1="39.074" x2="406.564" y2="93.818"/>
<line fill="none" stroke="#000000" stroke-width="2" x1="873.314" y1="178.145" x2="875.389" y2="173.838"/>
<line fill="none" stroke="#000000" x1="820.919" y1="150.219" x2="874.35" y2="175.99"/>
<polygon points="739.968,70.036 738.637,65.445 743.894,66.409 "/>
<line fill="none" stroke="#000000" x1="704.755" y1="77.757" x2="739.302" y2="67.741"/>
<polygon points="738.798,129.207 739.546,124.486 743.894,127.594 "/>
<line fill="none" stroke="#000000" x1="704.755" y1="121.404" x2="739.173" y2="126.848"/>
<line fill="none" stroke="#000000" stroke-width="2" x1="138.021" y1="97.328" x2="138.543" y2="92.576"/>
<line fill="none" stroke="#000000" x1="93.161" y1="90.002" x2="138.283" y2="94.952"/>
<polygon points="212.032,151.041 208.044,148.404 212.675,145.736 "/>
<line fill="none" stroke="#000000" x1="197.85" y1="168.145" x2="210.038" y2="149.723"/>
<polygon points="382.972,21.147 382.972,25.927 378.192,23.536 "/>
<line fill="none" stroke="#000000" x1="426.594" y1="23.536" x2="382.972" y2="23.536"/>
<polygon points="877.059,175.121 880.234,171.549 882.221,176.51 "/>
<line fill="none" stroke="#000000" x1="806.202" y1="108.987" x2="878.648" y2="173.334"/>
<polygon points="505.228,110.714 505.12,105.936 509.952,108.216 "/>
<line fill="none" stroke="#000000" x1="468.423" y1="109.161" x2="505.173" y2="108.325"/>
<polygon points="739.291,99.266 738.96,94.497 743.894,96.551 "/>
<line fill="none" stroke="#000000" x1="704.755" y1="99.259" x2="739.123" y2="96.881"/>
<line fill="none" stroke="#000000" stroke-width="2" x1="231.255" y1="65.386" x2="235.996" y2="64.768"/>
<line fill="none" stroke="#000000" x1="230.233" y1="39.074" x2="233.625" y2="65.076"/>
<polygon points="879.878,174.209 883.648,171.271 884.702,176.51 "/>
<line fill="none" stroke="#000000" x1="800.825" y1="68.95" x2="881.762" y2="172.74"/>
</svg>
