<?xml version="1.0" encoding="utf-8"?>
<!-- Generator: Adobe Illustrator 16.0.0, SVG Export Plug-In . SVG Version: 6.00 Build 0)  -->
<!DOCTYPE svg PUBLIC "-//W3C//DTD SVG 1.1//EN" "http://www.w3.org/Graphics/SVG/1.1/DTD/svg11.dtd">
<svg version="1.1" id="图层_1" xmlns="http://www.w3.org/2000/svg" xmlns:xlink="http://www.w3.org/1999/xlink" x="0px" y="0px"
	 width="350.074px" height="245.667px" viewBox="0 0 350.074 245.667" enable-background="new 0 0 350.074 245.667"
	 xml:space="preserve">
<path fill="#FFFFFF" fill-opacity="0.5" stroke="#000000" d="M121.108,58.294h81.566c1.958,0,3.546,1.587,3.546,3.546v23.642
	c0,1.958-1.588,3.547-3.546,3.547h-81.566c-1.959,0-3.546-1.589-3.546-3.547V61.84C117.561,59.882,119.149,58.294,121.108,58.294z"
	/>
<text transform="matrix(1 0 0 1 149.7092 67.7524)" font-family="'ArialMT'" font-size="8.2748">MDM2</text>
<rect x="120.516" y="71.297" fill="#FFF8F8" stroke="#000000" width="82.749" height="14.776"/>
<text transform="matrix(1 0 0 1 150.0701 81.4458)" font-family="'ArialMT'" font-size="8.2748">&lt;0.5%</text>
<text transform="matrix(1 0 0 1 232.8186 81.4458)" font-family="'ArialMT'" font-size="8.2748">&lt;0.5%</text>
<path fill="#FFFFFF" fill-opacity="0.5" stroke="#000000" d="M187.897,108.535h81.567c1.958,0,3.546,1.588,3.546,3.545v23.644
	c0,1.958-1.588,3.546-3.546,3.546h-81.567c-1.958,0-3.546-1.588-3.546-3.546V112.08
	C184.351,110.123,185.939,108.535,187.897,108.535z"/>
<text transform="matrix(1 0 0 1 211.8967 117.9927)" font-family="'ArialMT'" font-size="8.2748">CDKN1A</text>
<rect x="187.306" y="121.539" fill="#FFF8F8" stroke="#000000" width="82.749" height="14.775"/>
<text transform="matrix(1 0 0 1 216.8596 131.6841)" font-family="'ArialMT'" font-size="8.2748">&lt;0.5%</text>
<path fill="#FFFFFF" fill-opacity="0.5" stroke="#000000" d="M246.411,161.138h81.567c1.959,0,3.547,1.588,3.547,3.546v23.644
	c0,1.959-1.588,3.547-3.547,3.547h-81.566c-1.959,0-3.546-1.588-3.546-3.547v-23.644
	C242.865,162.726,244.452,161.138,246.411,161.138z"/>
<text transform="matrix(1 0 0 1 272.9436 170.5962)" font-family="'ArialMT'" font-size="8.2748">FBXW7</text>
<rect x="245.821" y="174.141" fill="#FFE0E0" stroke="#000000" width="82.748" height="14.776"/>
<text transform="matrix(1 0 0 1 277.7385 184.2896)" font-family="'ArialMT'" font-size="8.2748">1.2%</text>
<path fill="#FFFFFF" fill-opacity="0.5" stroke="#000000" d="M6.442,108.535h81.566c1.958,0,3.546,1.588,3.546,3.545v23.644
	c0,1.958-1.588,3.546-3.546,3.546H6.442c-1.958,0-3.546-1.588-3.546-3.546V112.08C2.895,110.123,4.483,108.535,6.442,108.535z"/>
<text transform="matrix(1 0 0 1 32.9724 117.9927)" font-family="'ArialMT'" font-size="8.2748">CCND1</text>
<rect x="5.85" y="121.539" fill="#FFF8F8" stroke="#000000" width="82.749" height="14.775"/>
<text transform="matrix(1 0 0 1 35.4045 131.6841)" font-family="'ArialMT'" font-size="8.2748">&lt;0.5%</text>
<rect x="116.379" y="218.471" fill="#FFFFFF" fill-opacity="0" width="92.205" height="14.187"/>
<text transform="matrix(1 0 0 1 122.011 228.52)" font-family="'ArialMT'" font-size="8.2748">Cell cycle progression</text>
<path fill="#FFFFFF" fill-opacity="0.5" stroke="#000000" d="M121.698,161.138h81.566c1.959,0,3.547,1.588,3.547,3.546v23.644
	c0,1.959-1.588,3.547-3.547,3.547h-81.566c-1.958,0-3.546-1.588-3.546-3.547v-23.644
	C118.152,162.726,119.74,161.138,121.698,161.138z"/>
<text transform="matrix(1 0 0 1 148.4583 170.5962)" font-family="'ArialMT'" font-size="8.2748">CCNE1</text>
<rect x="121.108" y="174.141" fill="#FFF8F8" stroke="#000000" width="82.749" height="14.776"/>
<text transform="matrix(1 0 0 1 150.6609 184.2896)" font-family="'ArialMT'" font-size="8.2748">&lt;0.5%</text>
<rect x="301.972" y="116.809" fill="#FFFFFF" fill-opacity="0" width="46.103" height="14.187"/>
<text transform="matrix(1 0 0 1 306.8538 126.8579)" font-family="'ArialMT'" font-size="8.2748">Apoptosis</text>
<rect x="2.895" y="161.138" fill="#FFFFFF" fill-opacity="0.5" stroke="#CCCCCC" stroke-width="2" width="88.659" height="30.734"/>
<text transform="matrix(1 0 0 1 39.1765 170.5962)" font-family="'ArialMT'" font-size="8.2748">RB1</text>
<rect x="5.85" y="174.437" fill="#FFCACA" stroke="#000000" width="82.749" height="14.776"/>
<text transform="matrix(1 0 0 1 37.7683 184.5854)" font-family="'ArialMT'" font-size="8.2748">2.2%</text>
<path fill="#FFFFFF" fill-opacity="0.5" stroke="#000000" d="M6.442,210.197h81.566c1.958,0,3.546,1.588,3.546,3.547v23.643
	c0,1.959-1.588,3.547-3.546,3.547H6.442c-1.958,0-3.546-1.588-3.546-3.547v-23.643C2.895,211.785,4.483,210.197,6.442,210.197z"/>
<text transform="matrix(1 0 0 1 37.3357 228.6548)" font-family="'ArialMT'" font-size="8.2748">E2F3</text>
<path fill="#FFFFFF" fill-opacity="0.5" stroke="#000000" d="M6.442,58.294h81.566c1.958,0,3.546,1.587,3.546,3.546v23.642
	c0,1.958-1.588,3.547-3.546,3.547H6.442c-1.958,0-3.546-1.589-3.546-3.547V61.84C2.895,59.882,4.483,58.294,6.442,58.294z"/>
<text transform="matrix(1 0 0 1 30.4412 67.6177)" font-family="'ArialMT'" font-size="8.2748">CDKN2A</text>
<path fill="#FFFFFF" fill-opacity="0.5" stroke="#000000" d="M234.591,58.294h81.565c1.959,0,3.547,1.587,3.547,3.546v23.642
	c0,1.958-1.588,3.547-3.547,3.547h-81.565c-1.959,0-3.546-1.589-3.546-3.547V61.84C231.044,59.882,232.632,58.294,234.591,58.294z"
	/>
<text transform="matrix(1 0 0 1 265.4866 67.7524)" font-family="'ArialMT'" font-size="8.2748">TP53</text>
<rect x="233.999" y="71.297" fill="#FF5D5D" stroke="#000000" width="82.748" height="14.776"/>
<text transform="matrix(1 0 0 1 263.553 81.4458)" font-family="'ArialMT'" font-size="8.2748">21.9%</text>
<path fill="#FFFFFF" fill-opacity="0.5" stroke="#000000" d="M234.591,2.734h81.565c1.959,0,3.547,1.588,3.547,3.547v23.643
	c0,1.958-1.588,3.546-3.547,3.546h-81.565c-1.959,0-3.546-1.588-3.546-3.546V6.281C231.044,4.322,232.632,2.734,234.591,2.734z"/>
<text transform="matrix(1 0 0 1 266.9475 12.1919)" font-family="'ArialMT'" font-size="8.2748">ATM</text>
<rect x="233.999" y="15.738" fill="#FFE3E3" stroke="#000000" width="82.748" height="14.776"/>
<text transform="matrix(1 0 0 1 265.9182 25.8853)" font-family="'ArialMT'" font-size="8.2748">1.1%</text>
<line fill="none" stroke="#000000" stroke-width="2" x1="207.992" y1="174.141" x2="207.992" y2="178.871"/>
<line fill="none" stroke="#000000" x1="242.865" y1="176.507" x2="207.992" y2="176.507"/>
<line fill="none" stroke="#000000" stroke-width="2" x1="44.86" y1="209.014" x2="49.589" y2="209.014"/>
<line fill="none" stroke="#000000" x1="47.225" y1="191.875" x2="47.225" y2="209.014"/>
<line fill="none" stroke="#000000" stroke-width="2" x1="44.86" y1="159.957" x2="49.589" y2="159.957"/>
<line fill="none" stroke="#000000" x1="47.225" y1="139.269" x2="47.225" y2="159.957"/>
<line fill="none" stroke="#000000" stroke-width="2" x1="44.86" y1="107.352" x2="49.589" y2="107.352"/>
<line fill="none" stroke="#000000" x1="47.225" y1="89.029" x2="47.225" y2="107.352"/>
<polyline points="205.106,58.867 209.062,55.358 209.448,60.66 "/>
<path fill="none" stroke="#000000" d="M227.321,100.695"/>
<line fill="none" stroke="#000000" stroke-width="2" x1="116.379" y1="76.027" x2="116.379" y2="71.297"/>
<line fill="none" stroke="#000000" x1="91.554" y1="73.662" x2="116.379" y2="73.662"/>
<line fill="none" stroke="#000000" stroke-width="2" x1="181.275" y1="158.552" x2="184.217" y2="162.255"/>
<line fill="none" stroke="#000000" x1="209.341" y1="139.269" x2="182.746" y2="160.404"/>
<polygon points="244.449,103.461 247.913,106.68 242.963,108.535 "/>
<line fill="none" stroke="#000000" x1="261.091" y1="89.029" x2="246.183" y2="105.072"/>
<polygon points="313.009,115.108 316.371,111.785 318.014,116.809 "/>
<line fill="none" stroke="#000000" x1="290.561" y1="89.029" x2="314.691" y2="113.447"/>
<polygon points="273.01,53.566 277.738,53.566 275.373,58.294 "/>
<line fill="none" stroke="#000000" x1="275.373" y1="33.47" x2="275.373" y2="53.566"/>
<line fill="none" stroke="#000000" stroke-width="2" x1="92.736" y1="174.141" x2="92.736" y2="178.871"/>
<line fill="none" stroke="#000000" x1="118.152" y1="176.507" x2="92.736" y2="176.507"/>
<polygon points="111.65,227.929 111.65,223.201 116.379,225.564 "/>
<line fill="none" stroke="#000000" x1="91.554" y1="225.564" x2="111.65" y2="225.564"/>
<line fill="none" stroke="#000000" stroke-width="2" x1="230.974" y1="90.445" x2="229.75" y2="85.878"/>
<path fill="none" stroke="#000000" d="M211.553,53.566"/>
<path fill="none" stroke="#000000" d="M229.25,88.162"/>
<path fill="none" stroke="#000000" d="M205.72,88.162"/>
<path fill="none" stroke="#000000" d="M231.525,58.691c0.832,0.291-14.163-5.416-23.529,0"/>
<path fill="none" stroke="#000000" d="M206.026,87.996c-0.832-0.291,14.164,5.414,23.531,0"/>
<rect x="5.365" y="70.443" fill="#FFDDDD" stroke="#000000" width="83.71" height="14.948"/>
<text transform="matrix(1 0 0 1 37.6526 80.7075)" font-family="'ArialMT'" font-size="8.2748">1.3%</text>
</svg>
