<?xml version="1.0" encoding="utf-8"?>
<!-- Generator: Adobe Illustrator 16.0.0, SVG Export Plug-In . SVG Version: 6.00 Build 0)  -->
<!DOCTYPE svg PUBLIC "-//W3C//DTD SVG 1.1//EN" "http://www.w3.org/Graphics/SVG/1.1/DTD/svg11.dtd">
<svg version="1.1" id="图层_1" xmlns="http://www.w3.org/2000/svg" xmlns:xlink="http://www.w3.org/1999/xlink" x="0px" y="0px"
	 width="472.955px" height="252.328px" viewBox="0 0 472.955 252.328" enable-background="new 0 0 472.955 252.328"
	 xml:space="preserve">
<rect x="84.399" y="237.977" fill="#FFFFFF" fill-opacity="0" width="114.803" height="14.352"/>
<text transform="matrix(1 0 0 1 95.0442 248.1406)" font-family="'ArialMT'" font-size="8.371">Cell survival, proliferation</text>
<path fill="#FFFFFF" fill-opacity="0.5" stroke="#000000" d="M7.264,101.648H89.78c1.98,0,3.587,1.606,3.587,3.589v23.916
	c0,1.982-1.606,3.588-3.587,3.588H7.264c-1.98,0-3.587-1.605-3.587-3.588v-23.916C3.677,103.254,5.284,101.648,7.264,101.648z"/>
<text transform="matrix(1 0 0 1 31.5442 111.2144)" font-family="'ArialMT'" font-size="8.371">CDKN2A</text>
<rect x="6.668" y="114.803" fill="#FFDDDD" stroke="#000000" width="83.71" height="14.947"/>
<text transform="matrix(1 0 0 1 38.9558 125.0669)" font-family="'ArialMT'" font-size="8.371">1.3%</text>
<rect x="372.601" fill="#FFFFFF" fill-opacity="0" width="93.276" height="14.35"/>
<text transform="matrix(1 0 0 1 378.0671 10.1646)" font-family="'ArialMT'" font-size="8.371">DNA replication stress</text>
<path fill="#FFFFFF" fill-opacity="0.5" stroke="#000000" d="M377.984,157.256h82.514c1.98,0,3.587,1.605,3.587,3.588v23.918
	c0,1.979-1.605,3.588-3.587,3.588h-82.514c-1.982,0-3.589-1.607-3.589-3.588v-23.918
	C374.395,158.863,376.001,157.256,377.984,157.256z"/>
<text transform="matrix(1 0 0 1 400.3953 166.8203)" font-family="'ArialMT'" font-size="8.371">RPS6KA3</text>
<rect x="377.384" y="170.41" fill="#FFF8F8" stroke="#000000" width="83.712" height="14.949"/>
<text transform="matrix(1 0 0 1 407.282 180.6738)" font-family="'ArialMT'" font-size="8.371">&lt;0.5%</text>
<rect x="211.758" y="237.377" fill="#FFFFFF" fill-opacity="0" width="89.689" height="14.354"/>
<text transform="matrix(1 0 0 1 213.323 247.543)" font-family="'ArialMT'" font-size="8.371">Senescence, apoptosis</text>
<rect x="103.233" y="33.784" fill="#FFFFFF" fill-opacity="0.5" stroke="#CCCCCC" stroke-width="2" width="197.916" height="37.668"/>
<path fill="#FFFFFF" fill-opacity="0.5" stroke="#000000" d="M211.758,37.073h82.515c1.981,0,3.588,1.605,3.588,3.586v23.918
	c0,1.981-1.605,3.588-3.588,3.588h-82.515c-1.98,0-3.588-1.606-3.588-3.588V40.659C208.17,38.678,209.777,37.073,211.758,37.073z"/>
<text transform="matrix(1 0 0 1 240.6921 46.6372)" font-family="'ArialMT'" font-size="8.371">MDM4</text>
<rect x="211.16" y="50.226" fill="#FFF8F8" stroke="#000000" width="83.71" height="14.948"/>
<text transform="matrix(1 0 0 1 241.0564 60.4907)" font-family="'ArialMT'" font-size="8.371">&lt;0.5%</text>
<path fill="#FFFFFF" fill-opacity="0.5" stroke="#000000" d="M110.11,37.073h82.515c1.981,0,3.587,1.605,3.587,3.586v23.918
	c0,1.981-1.605,3.588-3.587,3.588H110.11c-1.981,0-3.587-1.606-3.587-3.588V40.659C106.522,38.678,108.128,37.073,110.11,37.073z"/>
<text transform="matrix(1 0 0 1 139.0427 46.6372)" font-family="'ArialMT'" font-size="8.371">MDM2</text>
<rect x="109.511" y="50.226" fill="#FFF8F8" stroke="#000000" width="83.71" height="14.948"/>
<text transform="matrix(1 0 0 1 139.408 60.4907)" font-family="'ArialMT'" font-size="8.371">&lt;0.5%</text>
<path fill="#FFFFFF" fill-opacity="0.5" stroke="#000000" d="M160.336,157.256h82.515c1.981,0,3.588,1.605,3.588,3.588v23.918
	c0,1.979-1.606,3.588-3.588,3.588h-82.515c-1.98,0-3.587-1.607-3.587-3.588v-23.918
	C156.748,158.863,158.355,157.256,160.336,157.256z"/>
<text transform="matrix(1 0 0 1 191.5891 166.8203)" font-family="'ArialMT'" font-size="8.371">TP53</text>
<rect x="159.738" y="170.41" fill="#FF5D5D" stroke="#000000" width="83.71" height="14.949"/>
<text transform="matrix(1 0 0 1 189.635 180.6738)" font-family="'ArialMT'" font-size="8.371">21.9%</text>
<rect x="225.51" y="102.247" fill="#FFFFFF" fill-opacity="0" width="71.752" height="14.35"/>
<text transform="matrix(1 0 0 1 229.0505 112.4106)" font-family="'ArialMT'" font-size="8.371">Oncogenic stress</text>
<path fill="#FFFFFF" fill-opacity="0.5" stroke="#000000" d="M377.984,38.866h82.514c1.98,0,3.587,1.605,3.587,3.588V66.37
	c0,1.981-1.605,3.588-3.587,3.588h-82.514c-1.982,0-3.589-1.606-3.589-3.588V42.454C374.395,40.471,376.001,38.866,377.984,38.866z"
	/>
<text transform="matrix(1 0 0 1 410.7156 48.4321)" font-family="'ArialMT'" font-size="8.371">ATM</text>
<rect x="377.384" y="52.02" fill="#FFE3E3" stroke="#000000" width="83.712" height="14.948"/>
<text transform="matrix(1 0 0 1 409.6726 62.2837)" font-family="'ArialMT'" font-size="8.371">1.1%</text>
<path fill="#FFFFFF" fill-opacity="0.5" stroke="#000000" d="M377.984,95.668h82.514c1.98,0,3.587,1.606,3.587,3.588v23.916
	c0,1.982-1.605,3.589-3.587,3.589h-82.514c-1.982,0-3.589-1.607-3.589-3.589V99.256C374.395,97.275,376.001,95.668,377.984,95.668z"
	/>
<text transform="matrix(1 0 0 1 405.2839 105.2349)" font-family="'ArialMT'" font-size="8.371">CHEK2</text>
<rect x="377.384" y="108.823" fill="#FFF8F8" stroke="#000000" width="83.712" height="14.949"/>
<text transform="matrix(1 0 0 1 407.282 119.0874)" font-family="'ArialMT'" font-size="8.371">&lt;0.5%</text>
<line fill="none" stroke="#000000" stroke-width="2" x1="146.648" y1="235.531" x2="150.335" y2="238.58"/>
<line fill="none" stroke="#000000" x1="188.745" y1="188.35" x2="148.492" y2="237.055"/>
<line fill="none" stroke="#000000" stroke-width="2" x1="156.859" y1="159.096" x2="158.492" y2="154.6"/>
<line fill="none" stroke="#000000" x1="91.317" y1="132.74" x2="157.675" y2="156.848"/>
<polygon points="416.849,152.473 421.632,152.473 419.24,157.256 "/>
<line fill="none" stroke="#000000" x1="419.24" y1="126.762" x2="419.24" y2="152.473"/>
<line fill="none" stroke="#000000" stroke-width="2" x1="157.195" y1="74.122" x2="155.342" y2="69.711"/>
<line fill="none" stroke="#000000" x1="85.516" y1="101.648" x2="156.267" y2="71.917"/>
<polygon points="217.802,152.137 221.282,155.416 216.26,157.256 "/>
<line fill="none" stroke="#000000" x1="254.617" y1="116.596" x2="219.542" y2="153.775"/>
<polygon points="246.294,235.037 250.09,232.125 251.101,237.377 "/>
<line fill="none" stroke="#000000" x1="213.511" y1="188.35" x2="248.191" y2="233.58"/>
<line fill="none" stroke="#000000" stroke-width="2" x1="199.285" y1="156.047" x2="204.068" y2="156.072"/>
<line fill="none" stroke="#000000" x1="202.096" y1="71.454" x2="201.676" y2="156.061"/>
<polygon points="251.22,170.41 251.22,175.193 246.438,172.803 "/>
<line fill="none" stroke="#000000" x1="374.395" y1="172.803" x2="251.22" y2="172.803"/>
<polygon points="416.849,34.083 421.632,34.083 419.24,38.866 "/>
<line fill="none" stroke="#000000" x1="419.24" y1="14.35" x2="419.24" y2="34.083"/>
<polygon points="416.849,90.885 421.632,90.885 419.24,95.668 "/>
<line fill="none" stroke="#000000" x1="419.24" y1="69.958" x2="419.24" y2="90.885"/>
</svg>
